<svg width="64" height="64" viewBox="0 0 64 64" fill="none" xmlns="http://www.w3.org/2000/svg">
<path d="M31.7137 2.56006C28.0472 2.56006 25.0742 15.8588 25.0742 32.2637C25.0742 48.6686 28.0472 61.9673 31.7137 61.9673C35.3803 61.9673 38.3533 48.6686 38.3533 32.2637C38.3533 15.8588 35.3803 2.56006 31.7137 2.56006ZM32.1722 60.291C31.7529 60.8502 31.3336 60.4307 31.3336 60.4307C29.645 58.4742 28.8008 54.8394 28.8008 54.8394C25.8473 45.3344 26.5502 24.9263 26.5502 24.9263C27.9383 8.72437 30.4632 4.89698 31.3225 4.04726C31.4102 3.96054 31.5257 3.90755 31.6487 3.89761C31.7717 3.88767 31.8942 3.92142 31.9947 3.99292C33.2414 4.87633 34.2871 8.57084 34.2871 8.57084C37.3748 20.0329 37.0952 30.796 37.0952 30.796C37.3748 40.1614 35.5479 50.6449 35.5479 50.6449C34.1417 58.6122 32.1722 60.291 32.1722 60.291Z" fill="black"/>
<path d="M57.4785 17.4815C55.653 14.3 42.6393 18.3396 28.4028 26.5031C14.1664 34.6666 4.12415 43.864 5.94831 47.0441C7.77247 50.2242 20.7875 46.186 35.0239 38.0225C49.2604 29.859 59.3027 20.6616 57.4785 17.4815ZM7.63253 46.6077C6.93362 46.5197 7.0915 45.9452 7.0915 45.9452C7.94883 43.5075 10.677 40.9662 10.677 40.9662C17.4549 33.6739 35.5079 24.1282 35.5079 24.1282C50.2506 17.269 54.8299 17.5584 55.9916 17.8782C56.1108 17.9115 56.2144 17.9859 56.284 18.0883C56.3537 18.1906 56.3848 18.3143 56.372 18.4375C56.2323 19.9592 53.5413 22.7037 53.5413 22.7037C45.1415 31.0892 35.6658 36.2038 35.6658 36.2038C27.6814 41.1086 17.6788 44.7387 17.6788 44.7387C10.0678 47.4813 7.63253 46.6077 7.63253 46.6077Z" fill="black"/>
<path d="M57.4137 47.1501C59.2533 43.9771 49.2364 34.7375 35.0499 26.5127C20.8634 18.2878 7.85139 14.1982 6.01337 17.3767C4.17536 20.5551 14.1907 29.7892 28.3853 38.0141C42.5799 46.239 55.5757 50.3289 57.4137 47.1501ZM7.23238 18.6027C6.96064 17.9584 7.53427 17.8033 7.53427 17.8033C10.0739 17.3237 13.6412 18.4166 13.6412 18.4166C23.3463 20.6266 40.6517 31.4667 40.6517 31.4667C53.9757 40.7902 56.0192 44.8969 56.3254 46.0626C56.3565 46.1822 56.3444 46.3089 56.2912 46.4205C56.238 46.532 56.1472 46.6211 56.0346 46.6721C54.6453 47.3083 50.9241 46.3605 50.9241 46.3605C39.455 43.2852 30.2826 37.6508 30.2826 37.6508C22.0411 33.2058 13.8918 26.3662 13.8918 26.3662C7.69949 21.1524 7.23428 18.6098 7.23428 18.6098L7.23238 18.6027Z" fill="black"/>
<path d="M31.6439 35.688C33.5739 35.688 35.1385 34.1235 35.1385 32.1935C35.1385 30.2635 33.5739 28.699 31.6439 28.699C29.714 28.699 28.1494 30.2635 28.1494 32.1935C28.1494 34.1235 29.714 35.688 31.6439 35.688Z" fill="black"/>
<path d="M45.9712 20.8712C47.0906 20.8712 47.9981 19.9324 47.9981 18.7744C47.9981 17.6165 47.0906 16.6777 45.9712 16.6777C44.8518 16.6777 43.9443 17.6165 43.9443 18.7744C43.9443 19.9324 44.8518 20.8712 45.9712 20.8712Z" fill="black"/>
<path d="M12.7037 28.0002C13.8231 28.0002 14.7306 27.0615 14.7306 25.9035C14.7306 24.7455 13.8231 23.8068 12.7037 23.8068C11.5843 23.8068 10.6768 24.7455 10.6768 25.9035C10.6768 27.0615 11.5843 28.0002 12.7037 28.0002Z" fill="black"/>
<path d="M27.5201 53.7199C28.6395 53.7199 29.5469 52.7812 29.5469 51.6232C29.5469 50.4652 28.6395 49.5265 27.5201 49.5265C26.4006 49.5265 25.4932 50.4652 25.4932 51.6232C25.4932 52.7812 26.4006 53.7199 27.5201 53.7199Z" fill="black"/>
</svg>
