<svg width="16" height="16" viewBox="0 0 16 16" fill="none" xmlns="http://www.w3.org/2000/svg">
<g clip-path="url(#clip0_260_3526)">
<path fill-rule="evenodd" clip-rule="evenodd" d="M8 16.0015C12.4183 16.0015 16 12.4197 16 8.00146C16 3.58319 12.4183 0.00146484 8 0.00146484C3.58172 0.00146484 0 3.58319 0 8.00146C0 12.4197 3.58172 16.0015 8 16.0015ZM5 4.50146C5 4.22532 5.22386 4.00146 5.5 4.00146C5.77614 4.00146 6 4.22532 6 4.50146V5.00146H7.5V4.50146C7.5 4.22532 7.72386 4.00146 8 4.00146C8.27614 4.00146 8.5 4.22532 8.5 4.50146V5.00146H10V4.50146C10 4.22532 10.2239 4.00146 10.5 4.00146C10.7761 4.00146 11 4.22532 11 4.50146V5.00146C11.5523 5.00146 12 5.44918 12 6.00146H10.5H8H5.5H4C4 5.44918 4.44772 5.00146 5 5.00146V4.50146ZM12 11.0015V7.00146H4V11.0015C4 11.5537 4.44772 12.0015 5 12.0015H11C11.5523 12.0015 12 11.5537 12 11.0015Z" fill="white"/>
</g>
<defs>
<clipPath id="clip0_260_3526">
<rect width="16" height="16" fill="white" transform="translate(0 0.00146484)"/>
</clipPath>
</defs>
</svg>
