<svg width="65" height="64" viewBox="0 0 65 64" fill="none" xmlns="http://www.w3.org/2000/svg">
<path d="M9.98334 18.5C12.8451 13.5433 17.2624 9.66943 22.5502 7.47914C27.838 5.28886 33.7008 4.90459 39.2293 6.38594C44.7578 7.86729 49.6429 11.1315 53.1272 15.6722C56.6114 20.213 58.5 25.7765 58.5 31.5" stroke="white" stroke-width="0.5" stroke-linecap="round" stroke-dasharray="3 3"/>
<path d="M56 30L58.5 32L61 30" stroke="white" stroke-linecap="round"/>
<path d="M55.0167 44.5C52.1549 49.4567 47.7376 53.3306 42.4498 55.5209C37.162 57.7111 31.2992 58.0954 25.7707 56.6141C20.2422 55.1327 15.3571 51.8685 11.8728 47.3278C8.38857 42.787 6.5 37.2235 6.5 31.5" stroke="white" stroke-width="0.5" stroke-linecap="round" stroke-dasharray="3 3"/>
<path d="M9 33L6.5 31L4 33" stroke="white" stroke-linecap="round"/>
<path d="M36.5114 42.4871C36.5118 42.4871 36.5121 42.4871 36.5041 41.9872L36.5121 42.4871L37.0041 42.4793V41.9872V34.2575H45.142L43.9288 36.3989L43.8638 36.5136V36.6454V43.1275C43.7046 43.1939 43.4849 43.2833 43.2135 43.3887C42.6085 43.6236 41.7477 43.9373 40.7278 44.2509C38.6809 44.8803 36.0235 45.5 33.5153 45.5C27.7816 45.5 24.2994 43.371 22.2403 40.8275C20.1631 38.2617 19.5 35.2309 19.5 33.412C19.5 31.5853 19.9897 30.007 20.4836 28.8813C20.73 28.3195 20.976 27.8739 21.1589 27.5707C21.2503 27.4192 21.3258 27.3036 21.3775 27.2272C21.4033 27.189 21.4231 27.1606 21.436 27.1425L21.45 27.123L21.4527 27.1192L21.4528 27.1192L21.4529 27.119L21.453 27.1189L21.4531 27.1187L21.5637 26.9698L21.55 26.7842L20.9697 18.9398L26.8503 22.5686L27.0763 22.7081L27.3184 22.5989C29.8221 21.4701 32.5946 21.3423 34.7676 21.508C35.8499 21.5905 36.7728 21.745 37.4239 21.8786C37.7493 21.9454 38.0061 22.0068 38.1803 22.0511C38.2674 22.0732 38.3337 22.0911 38.3776 22.1032L38.4264 22.1169L38.4377 22.1202L38.44 22.1209L38.4401 22.1209L38.4403 22.121L38.4403 22.121L38.6524 22.1839L38.8417 22.069L44.03 18.9198L43.6477 25.8168L42.5109 26.9138C42.3071 26.6365 42.0055 26.292 41.5797 25.9495C40.6402 25.1939 39.1264 24.4733 36.7999 24.4733C34.4672 24.4733 32.3348 25.2932 30.7842 26.8402C29.2316 28.3894 28.2966 30.6334 28.2966 33.4169C28.2966 35.6661 28.7959 37.3798 29.5715 38.6797C30.347 39.9792 31.3818 40.837 32.4101 41.4005C33.4352 41.9622 34.4551 42.2326 35.215 42.3633C35.5961 42.4289 35.9149 42.4599 36.1407 42.4744C36.2537 42.4817 36.3436 42.485 36.4067 42.4863C36.4383 42.487 36.4632 42.4872 36.4809 42.4873L36.502 42.4872L36.5085 42.4872L36.5106 42.4871L36.5114 42.4871Z" stroke="white"/>
</svg>
