<svg width="16" height="16" viewBox="0 0 16 16" fill="none" xmlns="http://www.w3.org/2000/svg">
<path d="M5.99998 1.99951H6.52416C4.93798 3.38466 3.99998 5.67164 3.99998 7.99951C3.99998 10.3274 4.93798 12.6144 6.52416 13.9995H5.99998C3.42265 13.9995 1.33331 11.3132 1.33331 7.99951C1.33331 4.6858 3.42265 1.99951 5.99998 1.99951Z" fill="white"/>
<path fill-rule="evenodd" clip-rule="evenodd" d="M14.6666 7.99951C14.6666 11.3132 12.5773 13.9995 9.99998 13.9995C7.42265 13.9995 5.33331 11.3132 5.33331 7.99951C5.33331 4.6858 7.42265 1.99951 9.99998 1.99951C12.5773 1.99951 14.6666 4.6858 14.6666 7.99951ZM10.9966 5.34176C11.2347 5.38145 11.3795 5.54232 11.3199 5.70106L9.5423 10.4417C9.48277 10.6004 9.24149 10.6969 9.00338 10.6573C8.76526 10.6176 8.62049 10.4567 8.68002 10.298L10.4577 5.55734C10.5172 5.39859 10.7585 5.30207 10.9966 5.34176ZM9.33331 6.33285C9.33331 6.88513 9.03484 7.33285 8.66665 7.33285C8.29846 7.33285 7.99998 6.88513 7.99998 6.33285C7.99998 5.78056 8.29846 5.33285 8.66665 5.33285C9.03484 5.33285 9.33331 5.78056 9.33331 6.33285ZM11.3333 10.6662C11.7015 10.6662 12 10.2185 12 9.66618C12 9.11389 11.7015 8.66618 11.3333 8.66618C10.9651 8.66618 10.6666 9.11389 10.6666 9.66618C10.6666 10.2185 10.9651 10.6662 11.3333 10.6662Z" fill="white"/>
</svg>
