<svg width="64" height="64" viewBox="0 0 64 64" fill="none" xmlns="http://www.w3.org/2000/svg">
<path d="M31.7135 2.56006C28.047 2.56006 25.074 15.8588 25.074 32.2637C25.074 48.6686 28.047 61.9673 31.7135 61.9673C35.3801 61.9673 38.3531 48.6686 38.3531 32.2637C38.3531 15.8588 35.3801 2.56006 31.7135 2.56006ZM32.172 60.291C31.7527 60.8502 31.3334 60.4307 31.3334 60.4307C29.6448 58.4742 28.8006 54.8394 28.8006 54.8394C25.8471 45.3344 26.55 24.9263 26.55 24.9263C27.9381 8.72437 30.463 4.89698 31.3223 4.04726C31.41 3.96054 31.5255 3.90755 31.6485 3.89761C31.7715 3.88767 31.894 3.92142 31.9945 3.99292C33.2412 4.87633 34.2869 8.57084 34.2869 8.57084C37.3746 20.0329 37.095 30.796 37.095 30.796C37.3746 40.1614 35.5477 50.6449 35.5477 50.6449C34.1415 58.6122 32.172 60.291 32.172 60.291Z" fill="white"/>
<path d="M57.4781 17.4815C55.6526 14.3 42.6389 18.3396 28.4024 26.5031C14.166 34.6666 4.12372 43.864 5.94788 47.0441C7.77204 50.2242 20.7871 46.186 35.0235 38.0225C49.26 29.859 59.3023 20.6616 57.4781 17.4815ZM7.6321 46.6077C6.93319 46.5197 7.09107 45.9452 7.09107 45.9452C7.9484 43.5075 10.6766 40.9662 10.6766 40.9662C17.4545 33.6739 35.5075 24.1282 35.5075 24.1282C50.2502 17.269 54.8295 17.5584 55.9912 17.8782C56.1104 17.9115 56.214 17.9859 56.2836 18.0883C56.3533 18.1906 56.3844 18.3143 56.3716 18.4375C56.2319 19.9592 53.5409 22.7037 53.5409 22.7037C45.1411 31.0892 35.6654 36.2038 35.6654 36.2038C27.681 41.1086 17.6784 44.7387 17.6784 44.7387C10.0674 47.4813 7.63237 46.6077 7.63237 46.6077H7.6321Z" fill="white"/>
<path d="M57.4137 47.1501C59.2533 43.9771 49.2364 34.7375 35.0499 26.5127C20.8634 18.2878 7.85139 14.1982 6.01337 17.3767C4.17536 20.5551 14.1907 29.7892 28.3853 38.0141C42.5799 46.239 55.5757 50.3289 57.4137 47.1501ZM7.23238 18.6027C6.96064 17.9584 7.53427 17.8033 7.53427 17.8033C10.0739 17.3237 13.6412 18.4166 13.6412 18.4166C23.3463 20.6266 40.6517 31.4667 40.6517 31.4667C53.9757 40.7902 56.0192 44.8969 56.3254 46.0626C56.3565 46.1822 56.3444 46.3089 56.2912 46.4205C56.238 46.532 56.1472 46.6211 56.0346 46.6721C54.6453 47.3083 50.9241 46.3605 50.9241 46.3605C39.455 43.2852 30.2826 37.6508 30.2826 37.6508C22.0411 33.2058 13.8918 26.3662 13.8918 26.3662C7.69949 21.1524 7.23428 18.6098 7.23428 18.6098L7.23238 18.6027Z" fill="white"/>
<path d="M31.6437 35.688C33.5737 35.688 35.1383 34.1235 35.1383 32.1935C35.1383 30.2635 33.5737 28.699 31.6437 28.699C29.7138 28.699 28.1492 30.2635 28.1492 32.1935C28.1492 34.1235 29.7138 35.688 31.6437 35.688Z" fill="white"/>
<path d="M45.9712 20.8712C47.0906 20.8712 47.9981 19.9324 47.9981 18.7744C47.9981 17.6165 47.0906 16.6777 45.9712 16.6777C44.8518 16.6777 43.9443 17.6165 43.9443 18.7744C43.9443 19.9324 44.8518 20.8712 45.9712 20.8712Z" fill="white"/>
<path d="M12.7032 28.0002C13.8226 28.0002 14.7301 27.0615 14.7301 25.9035C14.7301 24.7455 13.8226 23.8068 12.7032 23.8068C11.5838 23.8068 10.6763 24.7455 10.6763 25.9035C10.6763 27.0615 11.5838 28.0002 12.7032 28.0002Z" fill="white"/>
<path d="M27.5202 53.7199C28.6396 53.7199 29.547 52.7812 29.547 51.6232C29.547 50.4652 28.6396 49.5265 27.5202 49.5265C26.4007 49.5265 25.4933 50.4652 25.4933 51.6232C25.4933 52.7812 26.4007 53.7199 27.5202 53.7199Z" fill="white"/>
</svg>
