<svg width="1264" height="1625" viewBox="0 0 1264 1625" fill="none" xmlns="http://www.w3.org/2000/svg">
<path d="M1119.67 924.516C1074.61 942.289 1027.1 953.582 982.719 973.049C953.246 986.023 908.241 1005.27 919.11 1043.98C923.69 1060.28 932.309 1074.49 928.985 1092.09C923.971 1118.61 894.211 1147.77 881.882 1171.82C854.317 1225.36 821.62 1289.09 761.704 1312.7C726.434 1326.6 687.74 1329.44 651.521 1340.08C613.516 1351.25 586.725 1375.89 555.021 1398.37C497.766 1438.96 435.794 1472.98 379.84 1515.31C330.221 1552.86 281.946 1599.74 222.849 1622.12" stroke="url(#paint0_radial_301_3270)" stroke-width="1.5" stroke-miterlimit="10"/>
<path d="M1111.38 911.237C1056.08 931.355 995.042 941.525 944.928 968.91C911.194 987.335 898.942 1001.95 911.803 1039.63C927.074 1084.37 887.709 1116.35 869.807 1154.38C851.303 1193.7 832.365 1232.67 803.529 1265.9C762.529 1313.13 696.401 1311.96 640.576 1330.06C609.37 1340.17 587.288 1359.76 561.483 1378.81C537 1396.88 511.66 1413.84 486.18 1430.37C438.954 1460.94 391.322 1489.7 346.225 1523.44C305.245 1554.12 262.577 1589.48 212.85 1604.77" stroke="url(#paint1_radial_301_3270)" stroke-width="1.5" stroke-miterlimit="10"/>
<path d="M1103.61 897.463C1047.56 917.254 984.06 922.554 933.85 950.169C920.311 957.609 899.695 968.636 894.481 985.548C890.385 998.824 896.787 1008.91 900.525 1021.12C914.403 1066.16 874.862 1098 857.952 1137.14C840.537 1177.53 823.245 1218.07 795.248 1252.91C755.802 1301.99 687.136 1300.51 631.784 1319.62C602.762 1329.64 582.429 1347.9 558.278 1366.1C533.731 1384.6 508.229 1401.81 482.379 1418.45C434.353 1449.35 385.278 1477.86 338.755 1511.09C297.233 1540.74 253.22 1574.77 202.806 1587.4" stroke="url(#paint2_radial_301_3270)" stroke-width="1.5" stroke-miterlimit="10"/>
<path d="M1095.61 883.987C1038.1 903.359 971.4 901.603 920.073 928.38C886.129 946.092 874.725 963.344 887.363 1000.96C893.158 1018.18 897.566 1031.63 888.402 1049C875.294 1073.82 857.07 1094.03 846.46 1120.24C829.853 1161.47 814.164 1203.55 787.036 1239.99C749.851 1289.91 680.685 1289.41 626.549 1308.4C597.76 1318.48 577.82 1336.39 553.949 1354.66C529.748 1373.17 504.482 1390.3 478.828 1406.72C430.861 1437.4 381.218 1464.88 334.077 1496.88C290.995 1526.13 244.952 1559.7 192.838 1570.14" stroke="url(#paint3_radial_301_3270)" stroke-width="1.5" stroke-miterlimit="10"/>
<path d="M1087.34 870.78C1027.47 889.18 957.956 879.393 904.17 904.29C871.676 919.333 855.284 939.169 868.456 976.098C874.324 992.538 878.934 1007.52 874.114 1024.91C866.697 1051.73 845.259 1077.78 835.323 1103.64C819.261 1145.58 805.282 1191.15 778.726 1227.02C741.598 1277.21 674.327 1277.18 617.78 1298.23C591.594 1307.96 572.406 1325.1 550.744 1342.01C526.475 1360.97 500.972 1378.32 475.005 1394.85C428.087 1424.71 378.883 1450.55 332.155 1480.72C286.524 1510.17 237.604 1544.29 182.716 1552.84" stroke="url(#paint4_radial_301_3270)" stroke-width="1.5" stroke-miterlimit="10"/>
<path d="M1078.86 857.798C1015.89 874.717 943.929 856.563 886.803 878.593C854.933 890.891 834.728 911.353 845.191 947.488C849.751 963.202 854.846 978.419 852.874 995.116C849.338 1025.01 832.317 1057.97 824.126 1086.95C811.733 1130.81 795.963 1177.11 770.474 1213.87C735.212 1264.65 668.322 1265.85 612.545 1286.83C586.6 1296.58 567.665 1313.39 546.313 1330.35C522.284 1349.2 497.266 1366.75 471.365 1382.94C424.458 1412.63 374.869 1437.45 327.502 1466.47C280.136 1495.49 229.282 1528.92 172.821 1535.46" stroke="url(#paint5_radial_301_3270)" stroke-width="1.5" stroke-miterlimit="10"/>
<path d="M1070.19 844.944C1004.01 861.747 929.999 835.442 868.586 851.96C838.104 860.129 811.338 879.798 818.101 915.497C821.488 933.356 826.331 950.214 824.303 968.749C820.705 1001.81 810.653 1033.91 807.26 1067.16C802.385 1114.99 787.636 1161.49 762.076 1200.54C729.073 1250.91 664.815 1254.24 610.457 1274.32C557.491 1293.9 515.419 1340.95 467.691 1371C421.771 1399.91 372.825 1423.16 325.951 1450.37C275.8 1479.48 222.039 1513.34 162.783 1518.08" stroke="url(#paint6_radial_301_3270)" stroke-width="1.5" stroke-miterlimit="10"/>
<path d="M1061.5 832.301C991.413 846.929 915.596 812.694 850.244 825.236C822.412 830.528 788.538 849.223 790.379 883.211C791.287 899.996 794.56 916.116 793.396 933.047C790.731 971.266 783.781 1005.78 784.641 1044.83C785.793 1097.29 780.514 1143.61 753.62 1187.09C722.059 1238.13 659.137 1242.75 605.096 1263.06C552.495 1282.8 511.532 1329.41 463.94 1359.21C417.966 1388 368.716 1410.28 321.235 1436.35C269.246 1464.89 213.5 1497.97 152.726 1500.85" stroke="url(#paint7_radial_301_3270)" stroke-width="1.5" stroke-miterlimit="10"/>
<path d="M1052.73 819.676C978.338 829.786 905.838 790.983 832.321 798.97C804.93 801.947 769.046 823.742 764.162 852.776C761.333 869.55 763.392 887.233 761.108 904.205C755.651 944.777 753.497 979.427 757.693 1020.6C762.761 1070.2 771.661 1129.13 745.052 1173.27C713.607 1225.38 653.497 1231.14 599.738 1251.7C547.538 1271.66 507.647 1317.78 460.294 1347.29C414.216 1375.99 364.704 1397.31 316.597 1422.17C261.559 1450.69 205.865 1480.03 142.774 1483.46" stroke="url(#paint8_radial_301_3270)" stroke-width="1.5" stroke-miterlimit="10"/>
<path d="M1044.06 806.995C966.148 814.369 892.423 769.268 815.557 773.881C790.038 775.387 748.507 796.267 738.329 822.106C732.35 837.25 732.126 855.107 728.99 870.954C720.505 913.934 721.725 952.281 728.083 995.258C735.606 1046.06 752.373 1108.93 733.446 1159.49C712.915 1214.32 641.875 1221.79 594.411 1240.3C542.614 1260.55 503.792 1306.09 456.659 1335.35C410.436 1363.99 360.714 1384.33 312.008 1408.09C254.989 1435.9 197.475 1464.36 132.851 1466.12" stroke="url(#paint9_radial_301_3270)" stroke-width="1.5" stroke-miterlimit="10"/>
<path d="M1035.37 794.283C954.519 799.032 880.755 745.79 800.455 750.756C774.726 752.342 731.424 772.184 715.444 793.991C705.599 807.434 702.286 827.034 697.712 842.606C685.434 884.826 690.136 927.291 697.139 969.681C706.221 1024.26 727.889 1089.72 717.121 1145.78C706.291 1202.1 633.225 1211.24 589.016 1228.95C537.657 1249.54 499.895 1294.54 452.917 1323.5C406.524 1352.11 356.62 1371.5 307.291 1394.11C248.371 1421.08 189.429 1448.3 123.421 1448.94" stroke="url(#paint10_radial_301_3270)" stroke-width="1.5" stroke-miterlimit="10"/>
<path d="M1026.91 781.391C944.169 783.697 870.081 726.089 787.771 730.141C761.768 731.415 717.551 752.053 697.308 769.789C650.19 811.043 658.31 891.649 666.648 944.355C676.148 1004.42 699.106 1070.13 697.044 1131.98C695.086 1189.48 625.782 1200.1 583.582 1217.49C532.733 1238.47 495.96 1282.89 449.174 1311.56C402.587 1340.16 352.537 1358.6 302.573 1380.04C244.138 1405.07 182.625 1433.6 117.573 1431.98" stroke="url(#paint11_radial_301_3270)" stroke-width="1.5" stroke-miterlimit="10"/>
<path d="M1018.61 768.306C935.115 768.624 861.188 708.661 777.886 712.182C750.589 713.339 708.221 734.891 684.703 750.153C627.709 787.18 630.502 862.013 637.97 920.164C646.333 985.301 668.036 1051.96 674.199 1118.24C679.797 1178.42 618.218 1188.17 575.213 1207.22C526.35 1228.88 491.049 1271.8 445.458 1299.64C397.652 1328.83 346.139 1346.68 294.443 1367.38C238.505 1389.79 176.569 1418.14 114.887 1415.36" stroke="url(#paint12_radial_301_3270)" stroke-width="1.5" stroke-miterlimit="10"/>
<path d="M1010.55 754.908C926.426 753.853 853.237 691.551 769.27 693.408C747.792 693.887 729.092 706.528 709.598 714.294C696.873 719.365 683.475 723.409 671.892 730.878C615.331 767.373 608.164 838.136 612.663 897.678C617.866 966.606 636.9 1035.46 649.48 1104.52C660.142 1163.11 617.9 1175.11 572.753 1194.51C522.989 1215.9 487.877 1259.68 441.74 1287.77C392.64 1317.58 339.73 1334.62 286.343 1354.59C232.956 1374.55 172.861 1403.55 114.46 1399.01" stroke="url(#paint13_radial_301_3270)" stroke-width="1.5" stroke-miterlimit="10"/>
<path d="M1002.77 741.079C918.083 738.882 846.016 673.763 761.393 673.574C739.827 673.551 721.335 685.642 701.628 692.83C686.883 698.205 670.754 702.116 657.252 710.368C604.012 742.885 592.537 823.894 592.266 877.555C591.896 948.355 607.389 1020.41 623.805 1090.84C628.751 1112.03 634.118 1137.7 618.63 1155.95C606.026 1170.8 584.487 1176.7 567.259 1184.26C517.945 1205.73 483.891 1248.17 438.011 1275.91C388.494 1305.85 335.436 1321.2 281.502 1340.5C228.899 1359.33 173.014 1389.67 115.308 1382.79" stroke="url(#paint14_radial_301_3270)" stroke-width="1.5" stroke-miterlimit="10"/>
<path d="M995.644 726.889C910.396 722.912 839.375 655.451 754.056 652.984C731.962 652.35 712.418 664.509 691.865 671.257C675.048 676.776 657.021 680.597 641.329 689.091C583.513 720.262 583.527 805.307 578.241 860.382C571.293 932.622 580.491 1006.37 598.129 1077.14C603.093 1097.06 613.838 1124.65 603.477 1144.74C595.555 1160.09 577.591 1166.96 562.917 1173.95C514.183 1197.17 480.197 1236.2 434.177 1263.89C385.746 1293.02 333.861 1306.39 281.654 1326.35C229.088 1346.41 174.652 1375.9 116.51 1366.54" stroke="url(#paint15_radial_301_3270)" stroke-width="1.5" stroke-miterlimit="10"/>
<path d="M989.336 712.467C903.39 706.347 833.172 636.685 747.083 632.022C724.841 630.827 705.124 642.453 684.33 648.666C664.553 654.589 643.575 658.268 624.909 667.374C560.538 698.787 567.994 785.219 565.952 844.981C563.434 919.176 556.215 991.087 573.509 1063.53C583.79 1106.63 601.104 1140.39 555.081 1165.77C532.512 1178.19 512.876 1188.72 493.334 1205.62C473.488 1222.76 452.993 1238.57 430.447 1252.08C383.297 1280.36 331.983 1294.12 281.607 1314.7C228.622 1336.32 176.277 1361.8 117.463 1350.29" stroke="url(#paint16_radial_301_3270)" stroke-width="1.5" stroke-miterlimit="10"/>
<path d="M983.71 697.799C896.956 689.276 827.265 617.519 740.198 610.833C716.114 608.992 693.363 621.709 670.471 627.719C649.702 633.136 628.051 636.746 608.267 645.339C536.326 676.543 548.6 764.087 550.359 828.915C552.345 902.139 537.26 979.09 550.702 1049.88C557.863 1087.5 587.015 1130.86 546.286 1158.21C526.612 1171.43 506.67 1181.22 488.311 1196.48C468.718 1212.77 448.848 1228.12 426.968 1241.32C381.576 1268.67 332.146 1283.5 283.841 1304.2C227.78 1328.21 178.586 1345.5 116.928 1333.9" stroke="url(#paint17_radial_301_3270)" stroke-width="1.5" stroke-miterlimit="10"/>
<path d="M978.499 682.986C890.872 671.762 820.935 597.641 733.13 589.818C709.61 587.718 687.763 599.294 665.166 604.811C640.824 610.782 615.587 614.388 592.075 623.383C512.32 653.884 527.065 742.278 532.312 812.38C535.311 852.407 537.976 892.627 536.388 932.784C535.019 967.439 527.389 1002.64 530.688 1036.19C534.446 1074.15 572.069 1124.61 532.217 1154.65C497.43 1180.87 461.268 1209.09 424.097 1231.89C381.729 1257.81 335.743 1273.77 290.523 1293.54C230.177 1319.9 179.812 1330.66 114.06 1317.29" stroke="url(#paint18_radial_301_3270)" stroke-width="1.5" stroke-miterlimit="10"/>
<path d="M973.645 667.954C885.082 654.01 814.929 578.303 725.726 569.2C701.794 566.759 678.882 578.357 655.703 583.59C629.475 589.492 602.512 593.07 576.965 601.785C489.689 631.577 504.504 719.674 512.708 795.478C517.118 836.038 521.705 876.764 522.799 917.622C523.737 953.451 515.76 988.351 514.436 1022.46C513.326 1050.98 526.834 1075.75 533.395 1103.82C537.537 1121.54 536.584 1135.01 522.989 1148.24C510.634 1160.25 494.496 1168.55 480.968 1179.23C461.446 1194.62 442.702 1210.27 421.611 1223.55C381.877 1248.59 338.885 1266.03 296.069 1284.82C231.477 1313.17 177.088 1314.53 108.01 1300.35" stroke="url(#paint19_radial_301_3270)" stroke-width="1.5" stroke-miterlimit="10"/>
<path d="M968.942 652.74C879.349 636.359 808.474 558.887 717.731 549.312C693.273 546.73 670.173 558.329 646.365 563.359C618.742 569.177 590.531 572.507 563.526 580.865C537.634 588.889 512.501 602.147 497.912 625.873C472.423 667.26 486.746 733.994 492.363 778.37C501.489 850.476 519.079 938.736 502.861 1008.57C495.938 1038.39 507.728 1064.22 516.319 1093.54C521.381 1110.83 524.877 1126.49 513.328 1142.03C503.763 1154.9 487.927 1163.36 475.555 1173.26C457.018 1188.01 439.189 1203.14 419.353 1216.16C382.627 1240.3 342.946 1259.35 302.646 1276.69C233.049 1306.63 171.442 1296.75 98.5658 1283.38" stroke="url(#paint20_radial_301_3270)" stroke-width="1.5" stroke-miterlimit="10"/>
<path d="M964.218 637.349C873.641 618.425 801.485 539.806 708.941 530.424C683.999 527.891 659.645 539.837 635.245 544.752C607.684 550.305 579.487 553.168 552.384 560.868C526.022 568.356 499.477 580.638 482.797 603.334C452.206 644.866 466.057 714.89 472.051 761.203C481.606 835.054 506.49 920.221 493.004 994.39C487.308 1025.75 490.023 1050.17 499.446 1080.37C504.724 1097.26 512.239 1115.62 504.875 1133.03C498.344 1148.48 480.594 1159.17 468.185 1169.44C451.465 1183.27 435.038 1197.11 417.228 1209.5C382.476 1233.6 344.559 1255.49 305.041 1270.81C232.788 1298.9 162.949 1277.87 89.1355 1268.12" stroke="url(#paint21_radial_301_3270)" stroke-width="1.5" stroke-miterlimit="10"/>
<path d="M959.323 621.775C869.36 600.974 794.627 518.616 701.023 516.123C675.942 515.449 652.904 530.259 628.484 535.629C601.381 541.578 573.625 543.688 546.354 548.67C518.138 553.834 487.64 561.837 469.136 585.479C436.634 627.036 447.149 696.602 452.649 744.09C461.496 820.331 486.828 902.868 481.03 979.899C478.754 1010.07 476.653 1038.02 484.622 1067.78C489.464 1085.76 499.214 1105.91 494.757 1125C487.447 1156.39 438.954 1185.69 415.006 1203.45C384.331 1226.17 350.527 1249.1 314.427 1262.14C238.24 1289.65 157.393 1261.64 80.0692 1254.54" stroke="url(#paint22_radial_301_3270)" stroke-width="1.5" stroke-miterlimit="10"/>
<path d="M954.062 606.035C865.553 583.95 789.637 505.562 695.808 506.997C671.146 507.375 649.211 522.882 625.121 528.263C597.865 534.368 569.811 535.869 542.141 539.599C514.471 543.33 483.352 548.903 462.331 569.189C423.626 606.676 430.928 679.822 434.915 727.186C441.582 805.507 465.963 886.141 467.259 965.193C467.775 997.655 466.758 1031.99 474.242 1063.94C478.524 1082.25 487.272 1102 483.857 1121.12C478.144 1152.99 436.026 1179.15 412.706 1197.79C385.325 1219.66 355.122 1243.62 321.251 1254.27C291.946 1263.5 260.728 1263.93 230.406 1261.01C177.171 1255.9 124.893 1245.5 71.3162 1242.11" stroke="url(#paint23_radial_301_3270)" stroke-width="1.5" stroke-miterlimit="10"/>
<path d="M948.291 590.117C862.547 567.595 783.302 493.661 691.801 499.477C668.123 501.024 648.011 516.677 624.831 522.166C596.776 528.799 567.722 529.665 539.111 532.349C512.152 534.861 481.493 537.543 459.242 554.673C416.804 587.351 418.088 664.375 419.758 710.571C422.683 790.298 444.829 870.095 452.194 950.303C455.203 982.929 458.67 1016.3 463.397 1048.82C466.35 1069.1 474.815 1089.81 474.123 1110.5C472.967 1145.82 434.455 1171.12 410.135 1192.34C385.582 1213.69 359.184 1237.92 326.865 1245.96C292.334 1254.58 256.251 1251.02 221.481 1246.19C168.715 1238.79 116.084 1233.05 62.8161 1230.35" stroke="url(#paint24_radial_301_3270)" stroke-width="1.5" stroke-miterlimit="10"/>
<path d="M941.869 573.996C859.195 551.682 776.951 482.888 688.786 493.176C665.49 495.85 646.526 512.187 623.521 517.791C595.292 524.659 565.827 524.954 536.961 526.519C510.34 527.96 478.701 528.083 455.489 543.127C412.354 571.075 409.409 650.784 407.929 694.394C405.219 774.558 424.181 855.021 436.332 935.282C444.657 990.392 466.075 1049.51 464.74 1105.81C463.895 1141.19 430.868 1164.43 407.339 1186.91C384.931 1208.29 362.855 1230.95 331.36 1237.04C291.557 1244.74 250.026 1235.92 210.478 1231.23C158.587 1225.09 106.536 1221.52 54.3916 1218.74" stroke="url(#paint25_radial_301_3270)" stroke-width="1.5" stroke-miterlimit="10"/>
<path d="M934.517 557.766C855.414 536.083 770.457 473.207 686.417 487.795C662.957 491.91 644.567 509.263 620.881 514.856C593.001 521.442 563.808 521.391 535.337 521.961C508.796 522.467 474.552 519.944 450.644 533.922C407.719 559.014 403.578 637.096 399.69 678.985C392.191 759.975 404.506 840.544 419.859 920.263C431.02 978.302 454.351 1034.72 455.915 1095.17C456.913 1133.74 428.519 1155.54 403.995 1181.37C383.959 1202.48 366.364 1222.82 335.999 1226.92C293.62 1232.64 249.09 1222.61 206.968 1218.67C153.309 1213.64 99.5124 1210.85 45.7674 1207" stroke="url(#paint26_radial_301_3270)" stroke-width="1.5" stroke-miterlimit="10"/>
<path d="M927.571 542.957C848.258 525.95 768.187 463.512 684.56 482.967C661.431 488.332 644.311 506.205 620.552 511.974C592.434 518.779 562.767 518.396 534.062 518.211C507.651 518.009 472.921 513.221 448.206 524.985C404.38 545.856 398.099 624.081 393.087 663.952C382.919 744.366 386.423 825.92 403.452 905.165C416.424 965.338 446.928 1021.63 448.313 1085.36C449.185 1125.93 424.998 1146.75 400.344 1175.4C380.85 1198.05 367.374 1213.95 335.722 1215.85C293.134 1218.43 248.665 1210.3 206.197 1207.11C149.867 1202.87 93.2623 1200.49 37.0624 1194.49" stroke="url(#paint27_radial_301_3270)" stroke-width="1.5" stroke-miterlimit="10"/>
<path d="M921.765 529C844.91 512.028 763.514 454.76 682.948 478.186C660.135 484.824 644.242 503.119 620.391 509.171C592.061 516.354 561.897 515.813 532.893 514.993C506.376 514.232 471.643 507.573 446.102 517.16C401.648 533.841 393.376 611.277 387.45 649.263C375.167 727.964 371.175 811.483 387.433 890.085C400.164 951.799 439.913 1007.11 441.729 1072.21C442.948 1115.85 421.45 1136.64 396.206 1168.76C375.656 1194.91 365.489 1203.85 330.032 1203.24C230.364 1201.51 126.419 1196.27 28.0128 1180.75" stroke="url(#paint28_radial_301_3270)" stroke-width="1.5" stroke-miterlimit="10"/>
<path d="M916.761 515.415C841.893 498.548 759.015 446.271 681.318 473.268C658.872 481.054 644.08 499.764 620.125 506.173C591.561 513.814 560.867 513.31 531.573 512.105C504.685 511.006 470.514 502.986 444.131 510.391C399.243 522.985 389.362 598.589 382.538 635.019C368.312 711.218 357.797 798.651 372.19 875.191C384.307 939.388 431.079 994.945 435.313 1062.36C438.082 1106.56 415.541 1128.44 391.459 1161.55C371.661 1188.81 362.874 1190.62 327.695 1190.28C225.564 1189.24 118.423 1187.96 18.5363 1165.53" stroke="url(#paint29_radial_301_3270)" stroke-width="1.5" stroke-miterlimit="10"/>
<path d="M912.362 502.126C839.014 485.325 754.608 437.729 679.447 467.788C657.275 476.655 643.521 495.669 619.5 502.546C590.715 510.786 559.468 510.561 529.833 509.23C502.334 507.985 469.296 499.243 442.033 504.449C396.9 513.116 385.517 586.004 378.097 621.122C362.407 695.391 347.279 785.218 358.256 860.39C367.953 926.765 420.589 981.792 428.522 1050.32C433.796 1095.94 410.459 1118.75 386.414 1153.19C367.717 1179.97 356.087 1177.77 322.691 1178.14C218.616 1179.28 109.206 1177.57 8.76171 1148.37" stroke="url(#paint30_radial_301_3270)" stroke-width="1.5" stroke-miterlimit="10"/>
<path d="M908.363 489.038C836.168 472.299 750.035 428.92 677.078 461.396C655.031 471.202 642.337 491.166 618.016 498.271C589.052 506.736 557.1 506.082 527.243 505.162C499.098 504.29 467.425 496.188 439.501 499.244C394.325 504.245 381.823 573.467 373.885 607.618C364.8 646.688 359.484 687.434 354.907 727.686C350.515 766.229 342.979 807.866 345.938 845.842C351.244 914.037 409.45 969.472 421.157 1038.26C429.137 1085.19 405.669 1108.33 380.926 1143.75C363.641 1168.54 348.449 1165.96 318.162 1166.93C210.599 1170.38 103.161 1162.94 -0.0264224 1131.07" stroke="url(#paint31_radial_301_3270)" stroke-width="1.5" stroke-miterlimit="10"/>
<path d="M904.586 476.105C837.073 460.218 740.753 415.621 675.449 455.17C653.738 468.311 641.91 485.552 615.899 492.016C585.707 499.52 553.256 498.912 522.371 498.45C494.577 498.023 466.197 494.108 438.472 494.826C391.597 496.066 378.634 558.752 369.666 594.549C350.669 670.323 337.976 755.43 335.684 831.582C333.653 898.922 397.119 957.611 412.854 1024.11C418.014 1045.9 419.007 1069.51 408.444 1089.97C400.271 1105.74 385.636 1118.61 375.076 1132.94C357.707 1156.52 340.861 1155.1 311.573 1156.52C203.374 1162.03 95.0867 1147.56 -7.87536 1113.86" stroke="url(#paint32_radial_301_3270)" stroke-width="1.5" stroke-miterlimit="10"/>
<path d="M900.795 463.193C830.338 446.312 742.879 408.992 674.437 449.1C661.481 456.688 651.168 468.246 637.764 474.988C623.153 482.346 605.905 484.855 589.812 486.683C549.805 491.233 509.081 490.04 468.881 490.336C425.515 490.655 399.076 491.29 379.921 536.134C343.381 621.7 335.888 727.971 327.508 817.188C320.933 887.273 386.91 947.233 405.251 1013.95C411.094 1035.2 413.155 1058.65 403.054 1078.98C395.24 1094.72 380.448 1107.25 369.644 1121.08C352.365 1143.18 337.686 1144.26 309.273 1146.24C197.631 1154.01 90.2077 1132.37 -15.1283 1096.56" stroke="url(#paint33_radial_301_3270)" stroke-width="1.5" stroke-miterlimit="10"/>
<path d="M897.124 452.934C826.427 436.945 741.685 404.913 673.385 444.71C659.644 452.711 648.377 464.389 633.873 471.092C618.367 478.253 600.365 480.483 583.569 482.259C545.044 486.344 506.068 485.866 467.385 487.226C428.467 488.601 398.033 488.431 379.033 528.106C361.75 564.177 354.917 605.934 347.977 644.964C338.764 696.783 330.695 749.747 323.082 800.885C312.262 873.582 371.061 929.227 392.549 995.704C399.159 1016.13 402.983 1039.09 393.746 1059.35C386.056 1076.22 370.069 1088.33 359.063 1103.15C341.935 1126.21 330.239 1131.71 300.085 1134.99C191.082 1146.84 81.6291 1117.51 -20.6343 1082.82" stroke="url(#paint34_radial_301_3270)" stroke-width="1.5" stroke-miterlimit="10"/>
<path d="M893.204 442.602C822.959 427.606 739.012 400.287 671.758 439.561C657.457 447.898 645.323 459.686 630.108 466.301C614.107 473.209 595.79 475.338 578.631 477.163C541.062 481.153 503.101 481.315 465.439 483.743C431.194 486.002 399.356 485.943 379.091 518.387C359.562 549.68 353.613 592.852 346.788 628.3C336.851 680.012 328.812 732.676 319.588 783.895C306.123 858.752 353.386 908.557 378.8 975.3C386.467 995.578 392.426 1019.36 383.875 1040.34C376.609 1058.09 359.402 1069.91 348.619 1085.48C330.993 1110.95 321.595 1120.17 288.068 1124.19C182.934 1136.77 72.3186 1102.08 -26.0279 1069" stroke="url(#paint35_radial_301_3270)" stroke-width="1.5" stroke-miterlimit="10"/>
<path d="M888.963 432.173C819.638 418.14 735.155 395.213 669.615 433.793C638.63 452.033 617.369 466.234 580.565 470.874C541.629 475.761 502.261 476.169 463.215 479.935C429.22 483.209 397.989 485.088 376.843 515.563C357.948 542.799 352.094 580.488 345.518 612.263C334.947 663.411 327.582 715.47 316.795 766.245C309.023 803.062 309.08 837.715 324.032 872.875C336.568 902.358 354.537 929.351 366.394 959.105C374.448 979.308 381.487 1003.24 372.41 1024.33C365.092 1041.38 348.04 1052.56 338.091 1068.18C321.375 1094.45 315.851 1107.96 280.964 1112.65C236.312 1118.72 189.393 1111.74 145.681 1102.81C85.7279 1090.45 26.5574 1074.55 -31.5213 1055.21" stroke="url(#paint36_radial_301_3270)" stroke-width="1.5" stroke-miterlimit="10"/>
<path d="M884.288 421.63C816.118 408.548 730.555 389.652 667.017 427.454C634.292 446.927 611.743 460.484 573.192 465.27C535.808 469.908 498.086 470.996 460.722 475.784C428.196 479.947 396.639 483.08 375.453 510.991C357.407 534.773 351.006 566.15 344.616 594.652C333.193 645.538 325.961 697.992 314.496 748.175C306.188 784.6 302.148 820.394 314.327 856.98C323.837 885.515 340.538 911.152 352.521 938.651C361.305 958.81 370.516 983.491 362.13 1005.29C355.288 1023.14 337.477 1034.48 327.877 1050.96C310.865 1080.12 308.396 1096.89 269.067 1101.08C225.241 1105.76 180.062 1096.24 137.308 1087.51C78.3883 1075.36 20.1896 1059.95 -37.0184 1041.33" stroke="url(#paint37_radial_301_3270)" stroke-width="1.5" stroke-miterlimit="10"/>
<path d="M879.094 410.903C812.15 398.567 725.411 383.421 664.019 420.577C630.421 440.918 606.985 453.964 567.246 459.072C530.878 463.743 494.126 465.416 457.823 471.248C428 476.033 395.403 480.911 374.803 505.076C356.849 526.218 349.234 553.743 342.876 580.085C330.944 629.622 323.774 680.922 312.355 729.879C304.062 765.421 296.937 798.671 305.341 835.321C312.529 866.437 328.367 893.542 341.011 922.559C349.431 941.809 358.819 965.068 351.915 986.242C345.839 1004.91 326.709 1016.57 317.423 1033.82C301.44 1063.51 302.086 1083.86 261.657 1087.82C215.054 1092.38 164.141 1079.46 118.967 1070.05C64.2745 1058.68 10.4131 1044.27 -42.8669 1027.54" stroke="url(#paint38_radial_301_3270)" stroke-width="1.5" stroke-miterlimit="10"/>
<path d="M873.253 399.969C807.567 388.227 720.033 376.626 660.679 413.251C628.842 432.979 604.432 446.345 566.788 451.793C529.48 457.168 491.737 459.224 454.677 466.382C424.541 472.21 390.249 479.333 369.754 504.03C352.053 525.377 343.734 553.362 337.476 579.808C327.167 623.477 320.361 668.478 310.274 711.575C301.994 746.907 291.938 779.909 298.127 816.923C303.325 848.069 317.163 875.817 329.492 904.544C337.73 923.712 347.803 946.898 341.438 968.071C335.699 987.132 315.95 998.843 307.03 1016.71C291.403 1047.97 294.497 1071.23 251.182 1073.36C204.199 1075.67 153.244 1063.27 107.618 1053.98C54.6742 1043.19 2.55343 1029.4 -49.1312 1013.82" stroke="url(#paint39_radial_301_3270)" stroke-width="1.5" stroke-miterlimit="10"/>
<path d="M866.653 388.8C801.535 378.414 715.067 368.73 657.043 405.49C624.491 426.102 598.855 439.165 560.369 444.951C524.018 450.42 487.221 452.995 451.313 461.145C422.907 467.591 388.92 476.477 368.262 498.21C323.22 545.579 321.734 634.441 308.028 693.366C299.845 728.561 287.471 762.053 291.583 799.202C294.915 829.379 306.673 856.697 318.164 884.44C326.198 903.86 337.01 927.441 331.197 949.01C325.813 968.943 305.344 980.572 296.611 999.3C280.199 1034.48 285.78 1057.54 236.857 1056.79C138.62 1055.4 37.7415 1026.89 -55.9926 999.861" stroke="url(#paint40_radial_301_3270)" stroke-width="1.5" stroke-miterlimit="10"/>
<path d="M858.703 377.198C793.338 369.137 710.768 359.883 653.179 397.348C622.415 417.372 596.315 430.798 559.719 436.893C522.379 443.123 484.428 445.986 447.683 455.509C419.908 462.721 386.049 473.743 365.102 494.04C320.553 537.272 318.174 619.711 305.477 675.414C297.591 709.98 283.687 743.224 285.344 779.715C286.727 809.899 296.713 837.81 307.548 865.607C315.259 885.402 327.312 909.008 321.271 930.883C315.718 951.035 294.689 962.395 286.106 981.616C280.419 994.329 280.591 1009.56 274.298 1021.83C264.732 1040.44 242.573 1040.02 224 1039.54C127.063 1036.99 29.4401 1011.44 -63.5664 985.995" stroke="url(#paint41_radial_301_3270)" stroke-width="1.5" stroke-miterlimit="10"/>
<path d="M849.58 364.94C784.278 359.16 705.979 350.861 649.16 388.892C617.104 410.363 589.222 423.362 550.893 429.839C515.13 435.885 478.784 439.357 443.853 449.503C416.432 457.467 383.115 470.291 361.57 489.6C317.722 528.912 314.073 605.349 302.455 657.856C294.944 691.72 280.228 724.49 279.546 759.988C278.961 789.772 286.917 817.831 296.55 845.69C303.522 865.817 315.676 890.483 310.563 912.402C305.749 932.948 283.955 944.103 275.414 963.515C269.775 976.402 270.216 992.285 263.37 1004.48C252.894 1023.18 228.647 1022.36 209.832 1021.85C115.562 1019.33 18.5896 997.563 -71.7466 971.59" stroke="url(#paint42_radial_301_3270)" stroke-width="1.5" stroke-miterlimit="10"/>
<path d="M839.379 352.147C774.577 348.26 700.517 341.797 644.969 380.186C613.8 401.724 585.426 414.711 548.078 421.51C511.884 428.115 474.982 431.908 439.763 443.095C412.859 451.651 381.429 466.227 359.305 483.904C314.354 519.811 309.686 589.468 298.682 640.893C291.516 674.396 276.48 706.893 273.878 741.654C271.671 771.055 277.744 799.258 285.972 827.322C292.066 848.05 303.148 873.241 296.86 895.015C291.209 914.578 271.202 925.63 263.034 944.544C257.564 957.212 257.734 972.416 251.281 984.548C240.95 1003.98 217.598 1004.16 198.1 1003.94C105.968 1002.9 7.5076 984.295 -79.9728 956.268" stroke="url(#paint43_radial_301_3270)" stroke-width="1.5" stroke-miterlimit="10"/>
<path d="M828.429 338.856C764.121 336.825 695.054 332.504 640.812 371.216C609.839 393.328 580.704 406.256 543.264 413.27C507.225 420.027 470.474 424.314 435.646 436.272C407.531 445.903 375.243 463.171 352.01 481.865C310.166 515.547 304.24 575.909 294.206 624.511C287.372 657.634 272.653 689.489 268.331 723.371C264.867 750.548 268.176 777.208 274.12 803.788C278.965 825.386 288.693 850.752 282.595 873.064C277.071 893.267 256.609 904.676 248.561 924.194C243.123 937.383 243.467 953.308 236.612 965.793C225.468 986.155 200.178 985.912 179.512 985.72C90.3595 984.873 -4.27494 969.14 -88.4187 940.104" stroke="url(#paint44_radial_301_3270)" stroke-width="1.5" stroke-miterlimit="10"/>
<path d="M816.774 325.244C752.958 324.977 689.503 323.141 636.623 362.09C605.29 385.165 574.273 397.913 536.169 405.27C501.009 412.032 465.197 416.732 431.41 429.14C403.166 439.506 373.735 458.034 349.421 475.789C306.546 507.103 298.103 560.189 288.749 609.153C282.787 640.263 269.804 669.245 263.594 700.229C257.935 728.457 259.13 756.473 263.405 784.758C266.572 805.667 273.282 829.328 266.995 850.24C260.709 871.152 240.138 882.49 232.287 903.025C226.962 916.876 227.932 933.653 220.974 946.776C210.565 966.404 187.143 967.319 167.261 967.577C78.7427 968.761 -13.8913 953.53 -96.9317 923.371" stroke="url(#paint45_radial_301_3270)" stroke-width="1.5" stroke-miterlimit="10"/>
<path d="M804.63 311.376C776.602 312.013 748.452 313.394 720.572 316.411C683.884 320.364 661.405 330.729 632.497 352.847C570.605 400.219 496.951 394.344 426.967 421.494C398.508 432.537 372.008 452.457 346.762 469.484C303.13 498.905 291.221 544.912 282.064 594.1C271.384 651.454 248.247 701.182 252.099 761.098C253.449 782.356 258.207 806.16 251.021 826.891C243.672 848.133 222.707 859.51 214.989 881.141C209.71 895.935 211.316 913.206 204.531 927.375C194.396 948.529 168.944 949.053 148.315 949.324C61.2265 950.464 -24.148 936.538 -105.643 906.093" stroke="url(#paint46_radial_301_3270)" stroke-width="1.5" stroke-miterlimit="10"/>
<path d="M792.183 297.373C764.543 298.729 736.679 300.7 709.289 304.659C674.469 309.676 655.589 322.193 628.491 343.549C567.1 391.952 492.006 385.332 422.591 413.514C392.595 425.7 367.309 447.721 340.364 465.352C298.801 492.568 283.68 532.361 274.494 579.235C263.571 634.978 242.624 686.54 241.489 744.607C241.064 766.176 242.881 789.994 232.185 809.639C222.089 828.198 204.095 837.98 197.328 859.063C192.439 874.184 194.979 891.509 189.076 906.178C179.808 929.229 155.766 930.798 133.589 931.397C46.9534 933.812 -33.3169 919.067 -114.259 888.6" stroke="url(#paint47_radial_301_3270)" stroke-width="1.5" stroke-miterlimit="10"/>
<path d="M779.599 283.329C752.503 285.394 725.086 288.023 698.326 292.979C665.13 299.132 649.4 313.44 624.638 334.176C565.608 383.775 487.013 376.131 418.093 405.078C387.348 417.994 363.54 441.667 335.671 459.494C295.114 485.443 276.387 518.36 266.128 564.519C254.713 615.792 237.196 666.505 231.322 719.63C228.881 741.743 228.463 765.868 216.74 785.554C205.279 804.806 186.405 814.37 179.772 837.085C175.013 853.411 178.98 872.04 172.993 887.849C164.272 910.867 141.524 912.484 119.602 913.664C33.9352 918.293 -43.0298 900.711 -122.962 870.967" stroke="url(#paint48_radial_301_3270)" stroke-width="1.5" stroke-miterlimit="10"/>
<path d="M767.053 269.343C740.476 272.119 713.557 275.308 687.509 281.335C655.136 288.818 645.051 305.04 621.079 324.929C561.347 374.502 482.199 366.881 413.571 396.239C382.545 409.532 361.107 434.275 333.004 452.049C292.727 477.526 269.515 503.724 257.263 550.024C243.895 600.552 230.731 652.389 220.686 704.635C216.923 724.319 213.606 744.985 202.451 762.108C189.525 781.95 169.468 791.307 163.048 815.651C158.365 833.414 163.603 852.94 157.966 870.311C150.704 892.73 127.739 895.091 106.887 896.515C22.4079 902.291 -52.5055 882.056 -131.616 853.548" stroke="url(#paint49_radial_301_3270)" stroke-width="1.5" stroke-miterlimit="10"/>
<path d="M754.735 255.521C728.796 258.913 702.041 262.384 676.918 269.804C647.409 278.515 638.657 296.393 617.808 315.717C560.714 368.671 477.711 356.191 408.899 386.679C376.574 400.964 355.57 428.326 326.13 446.723C288.193 470.445 262.032 492.864 248.181 535.695C232.627 583.672 224.095 634.317 211.653 684.068C206.573 704.364 200.642 725.448 187.81 742.42C173.281 761.585 153.533 769.821 147.7 795.065C143.426 813.536 149.38 832.971 145.103 851.228C139.281 876.142 114.751 878.289 92.6006 880.193C10.7465 887.04 -63.6082 862.616 -140.083 836.48" stroke="url(#paint50_radial_301_3270)" stroke-width="1.5" stroke-miterlimit="10"/>
<path d="M742.796 241.979C717.54 245.973 691.096 249.912 666.955 258.542C639.263 268.441 632.739 288.965 612.885 307.446C555.432 360.944 474.543 348.698 404.202 376.512C370.482 389.852 353.033 419.054 323.576 438.122C286.446 462.145 255.756 479.635 238.885 521.529C220.436 567.339 213.521 615.488 202.185 664.33C197.176 685.986 189.357 707.137 174.617 724.187C159.422 741.756 139.548 750.94 134.483 775.647C130.649 794.672 137.2 813.951 133.969 832.83C129.783 857.311 108.642 860.707 86.6079 863.07C4.90132 871.852 -71.9472 844.019 -148.702 819.916" stroke="url(#paint51_radial_301_3270)" stroke-width="1.5" stroke-miterlimit="10"/>
<path d="M731.438 228.816C706.797 233.384 681.092 238.068 657.844 247.638C632.174 258.215 626.557 281.57 608.307 299.704C552.932 354.723 470.839 342.188 400.138 366.789C384.016 372.393 368.296 380.068 355.684 391.822C341.538 405 332.922 420.549 316.631 431.786C281.958 455.724 249.124 468.849 229.73 507.445C218.105 530.59 207.603 556.59 201.853 582.608C196.794 605.6 195.275 629.241 190.035 652.176C185.653 671.37 178.733 689.576 165.917 704.802C150.075 723.606 128.353 731.433 123.339 757.955C119.576 777.895 127.953 798.168 124.297 817.804C119.961 841.092 99.1599 844.05 78.5201 846.308C-2.58717 855.148 -80.3469 825.456 -157.064 803.986" stroke="url(#paint52_radial_301_3270)" stroke-width="1.5" stroke-miterlimit="10"/>
<path d="M720.818 216.115C696.914 221.188 671.271 226.213 649.251 237.094C626.552 248.314 620.818 275.386 604.434 292.295C550.152 348.299 468.526 335.078 396.475 357.131C357.686 369.018 341.496 393.682 313.091 419.564C283.16 446.84 242.254 456.179 220.855 493.427C194.558 539.174 188.132 582.057 178.551 633.078C174.698 653.609 168.197 673.473 154.238 689.426C138.523 707.376 116.913 715.771 112.318 741.432C108.771 761.14 118.445 780.649 115.879 800.074C112.549 825.22 89.1735 827.616 67.5153 829.627C-12.0207 837.129 -89.2384 806.976 -165.311 788.932" stroke="url(#paint53_radial_301_3270)" stroke-width="1.5" stroke-miterlimit="10"/>
<path d="M711.106 204.009C689.005 209.266 663.522 214.078 643.955 226.035C622.771 238.993 616.968 267.951 601.177 285.163C548.425 342.628 465.679 328.868 393.35 347.943C353.754 358.384 333.62 382.657 304.317 408.641C275.654 434.053 235.007 448.064 212.482 479.51C197.596 500.228 182.947 523.665 176.351 548.73C170.258 571.914 169.647 595.867 165.502 619.369C162.012 638.99 156.616 657.313 143.669 672.803C127.812 691.792 105.375 698.59 101.886 725.794C99.4751 744.576 108.37 761.896 108.031 780.371C107.565 805.857 86.2393 809.845 64.2917 812.171C-16.364 820.697 -95.6193 789.511 -173.72 774.861" stroke="url(#paint54_radial_301_3270)" stroke-width="1.5" stroke-miterlimit="10"/>
<path d="M702.487 192.578C682.836 197.714 658.352 202.461 641.315 214.156C620.007 228.788 614.327 259.898 598.449 278.266C547.189 337.496 463.092 322.657 390.533 338.766C351.659 347.403 329.761 369.017 300.652 393.865C270.925 419.232 230.362 436.912 204.752 465.559C168.21 506.418 160.027 547.378 152.819 600.222C150.106 620.23 145.87 640.402 133.097 656.681C118.06 675.829 93.7822 683.663 91.0704 710.58C86.9216 751.784 124.352 787.1 61.3139 794.574C-20.8789 804.31 -104.8 773.839 -185.032 760.701" stroke="url(#paint55_radial_301_3270)" stroke-width="1.5" stroke-miterlimit="10"/>
<path d="M696.851 180.624C678.416 185.394 655.59 190.329 640.103 202.072C618.397 218.511 612.527 251.764 596.18 271.561C545.711 332.651 461.138 316.053 388.117 329.964C347.016 337.798 324.585 358.023 292.898 383.214C262.323 407.508 225.822 426.669 197.854 451.559C178.816 468.491 159.711 490.486 150.863 516.083C143.342 537.937 142.381 561.028 139.705 583.762C137.308 604.085 133.893 625.024 121.256 641.843C106.822 661.034 81.9236 668.701 80.6342 695.632C78.6746 736.824 119.038 769.989 54.2131 777.376C-29.3206 786.89 -117.139 758.466 -199.167 746.299" stroke="url(#paint56_radial_301_3270)" stroke-width="1.5" stroke-miterlimit="10"/>
<path d="M692.943 167.928C674.815 172.67 654.912 177.978 640.051 189.871C617.72 207.748 611.243 243.683 594.27 264.985C544.423 327.549 459.195 310.144 385.927 321.153C345.824 327.171 321.568 344.84 290.489 368.751C258.667 393.171 222.371 411.756 191.775 437.085C170.728 454.504 149.002 474.2 138.627 500.49C130.599 520.859 129.378 542.565 126.983 564.059C124.396 587.576 121.77 611.211 106.62 630.492C92.4694 648.468 69.6512 654.139 70.4696 680.662C71.0443 699.552 85.1597 714.855 86.6346 733.159C88.5918 757.407 60.4451 758.678 42.3049 760.436C-42.6047 768.71 -131.942 743.09 -215.646 731.661" stroke="url(#paint57_radial_301_3270)" stroke-width="1.5" stroke-miterlimit="10"/>
<path d="M690.498 154.589C673.011 159.297 654.486 165.265 640.657 177.384C617.572 197.595 610.49 235.212 592.634 258.507C543.079 322.976 458.001 303.639 384.023 312.647C342.167 317.752 316.665 334.617 283.351 358.202C251.796 380.542 216.437 398.182 186.251 421.47C164.828 438.027 141.399 456.43 128.853 481.549C118.199 502.922 116.479 526.774 114.079 550.103C111.92 571.165 109.918 593.712 97.45 611.687C84.1206 630.9 57.8892 638.568 59.7435 665.368C60.9852 683.618 76.3874 697.72 78.7882 715.34C82.0141 738.87 56.5595 740.931 37.8333 743.027C-51.1758 753.183 -145.864 728.025 -233.773 716.896" stroke="url(#paint58_radial_301_3270)" stroke-width="1.5" stroke-miterlimit="10"/>
<path d="M689.289 140.78C672.379 145.626 654.79 152.306 641.831 164.623C617.908 187.326 610.194 226.601 591.222 252.116C541.846 318.53 456.554 297.794 382.249 304.067C338.668 307.77 311.771 324.552 276.452 347.745C245.446 368.165 211.395 384.525 181.647 405.889C159.206 422.011 134.762 439.868 119.958 464.297C107.343 485.051 104.805 509.12 102.245 532.73C99.9237 554.141 98.4038 577.407 85.8697 595.851C72.8369 615.041 45.9246 622.86 49.1923 649.611C51.3966 667.615 68.1017 680.87 70.7668 698.365C74.3794 721.981 46.1473 723.922 27.9396 726.123C-63.93 737.297 -162.113 712.689 -253.088 702.104" stroke="url(#paint59_radial_301_3270)" stroke-width="1.5" stroke-miterlimit="10"/>
<path d="M688.986 126.501C629.561 145.225 622.169 201.179 589.885 245.681C540.355 313.881 455.587 291.603 380.655 295.693C336.894 298.058 308.528 313.088 272.468 335.511C241.484 354.827 207.766 370.294 177.812 390.389C154.927 405.744 130.336 422.716 113.741 445.7C98.1854 467.263 94.5331 492.272 91.1022 517.92C88.1781 539.733 86.5454 561.73 73.5808 580.315C60.6161 598.9 33.467 606.169 38.7771 633.075C42.1927 650.447 59.0763 663.195 61.9477 680.207C66.266 706.002 29.2852 707.861 11.1598 709.691C-82.1834 719.13 -180.18 697.108 -272.725 687.187" stroke="url(#paint60_radial_301_3270)" stroke-width="1.5" stroke-miterlimit="10"/>
<path d="M689.418 111.959C630.531 132.338 620.675 194.08 588.57 239.22C538.864 309.097 454.784 285.398 379.141 287.393C335.354 288.547 305.466 301.641 268.743 323.382C237.931 341.643 204.566 356.11 174.595 374.963C124.014 406.766 91.7722 438.555 81.7115 499.687C78.1565 521.528 76.2068 543.816 62.9771 562.338C49.5516 581.081 22.0078 588.133 28.1171 615.467C31.8025 632.023 49.5167 645.719 50.733 662.502C52.6416 688.812 12.0455 690.523 -6.3174 692.315C-100.671 701.543 -198.662 681.537 -292.312 672.362" stroke="url(#paint61_radial_301_3270)" stroke-width="1.5" stroke-miterlimit="10"/>
<path d="M690.267 97.2436C631.878 119.37 619.096 186.99 587.199 232.697C537.301 304.18 454.03 279.152 377.606 279.025C333.814 278.957 302.55 290.366 265.095 311.236C234.457 328.305 201.597 341.875 171.725 359.499C122.01 388.835 85.3972 418.77 74.1297 478.255C69.771 501.247 67.6566 525.839 52.8425 545.047C38.8614 563.154 13.7859 570.142 17.8069 597.078C20.2376 613.281 38.3088 630.139 35.2517 647.126C30.7611 672.012 -15.0717 673.378 -32.9251 674.862C-125.062 682.541 -219.615 665.549 -311.212 657.505" stroke="url(#paint62_radial_301_3270)" stroke-width="1.5" stroke-miterlimit="10"/>
<path d="M691.325 82.4621C633.15 107.038 618.187 180.793 585.652 226.074C564.53 255.47 537.572 274.806 499.202 277.481C458.153 280.342 417.013 271.778 376.039 270.662C302.262 268.589 231.991 308.796 169.099 344.124C118.793 372.413 79.6426 400.728 67.0954 459.794C62.2362 482.805 59.7636 507.267 44.6495 526.352C30.1512 544.637 5.87948 551.43 7.13298 578.496C7.88357 594.658 21.8485 612.243 16.1799 628.65C7.73552 653.057 -37.7849 655.011 -57.6037 656.755C-147.4 664.684 -239.327 649.652 -328.766 642.801" stroke="url(#paint63_radial_301_3270)" stroke-width="1.5" stroke-miterlimit="10"/>
<path d="M692.309 67.7365C634.275 95.3558 617.206 172.347 583.88 219.243C562.851 248.896 536.843 268.896 498.248 271.296C456.925 273.871 415.58 264.415 374.479 262.241C300.399 258.403 230.763 295.092 166.622 328.77C117.454 354.597 75.2914 381.405 61.3919 438.314C55.9362 460.619 54.0275 484.635 40.1571 503.891C25.201 524.649 -1.56136 531.048 -3.89961 559.662C-5.27991 575.937 2.75395 593.538 -5.09251 608.926C-17.101 632.643 -56.9157 635.357 -79.2343 637.857C-166.805 647.681 -256.892 633.782 -344.361 628.244" stroke="url(#paint64_radial_301_3270)" stroke-width="1.5" stroke-miterlimit="10"/>
<path d="M692.974 53.1416C634.978 83.9311 616.111 163.524 581.81 212.302C561.752 240.883 537.258 261.827 500.189 264.815C457.781 268.217 414.84 256.976 372.702 253.986C298.587 248.713 229.351 281.521 163.947 313.57C114.471 337.838 70.039 363.235 55.3111 419.666C49.4948 441.883 47.4815 465.81 33.4327 484.967C17.7084 506.425 -8.39399 512.847 -15.7262 540.721C-20.116 557.359 -17.0477 575.39 -27.796 589.974C-44.3249 612.395 -80.8997 616.404 -105.995 619.483C-189.007 629.692 -274.302 617.862 -357.397 613.975" stroke="url(#paint65_radial_301_3270)" stroke-width="1.5" stroke-miterlimit="10"/>
<path d="M693.074 38.8047C620.055 81.7434 613.088 185.448 549.763 238.55C497.122 282.696 408.165 245.999 347.173 243.858C283.907 241.603 217.948 272.667 160.968 298.357C111.326 320.795 64.5793 344.821 49.1214 400.757C43.0384 422.886 40.9509 446.708 26.7773 465.789C10.37 487.883 -15.785 495.171 -27.9119 521.53C-35.7225 538.472 -37.7101 556.822 -51.0598 570.82C-70.9319 591.79 -104.9 597.351 -132.011 601.069C-209.645 611.703 -289.376 601.927 -367.308 599.936" stroke="url(#paint66_radial_301_3270)" stroke-width="1.5" stroke-miterlimit="10"/>
<defs>
<radialGradient id="paint0_radial_301_3270" cx="0" cy="0" r="1" gradientUnits="userSpaceOnUse" gradientTransform="translate(628.567 1209.06) rotate(-25.5587) scale(553.684 6145.12)">
<stop stop-color="#131215"/>
<stop offset="0.495" stop-color="#2E2A3F"/>
<stop offset="1"/>
</radialGradient>
<radialGradient id="paint1_radial_301_3270" cx="0" cy="0" r="1" gradientUnits="userSpaceOnUse" gradientTransform="translate(618.728 1192.54) rotate(-25.4384) scale(553.506 6308.11)">
<stop stop-color="#131215"/>
<stop offset="0.495" stop-color="#2E2A3F"/>
<stop offset="1"/>
</radialGradient>
<radialGradient id="paint2_radial_301_3270" cx="0" cy="0" r="1" gradientUnits="userSpaceOnUse" gradientTransform="translate(608.469 1174.63) rotate(-25.2617) scale(553.725 6552.94)">
<stop stop-color="#131215"/>
<stop offset="0.495" stop-color="#2E2A3F"/>
<stop offset="1"/>
</radialGradient>
<radialGradient id="paint3_radial_301_3270" cx="0" cy="0" r="1" gradientUnits="userSpaceOnUse" gradientTransform="translate(596.418 1153.94) rotate(-24.9871) scale(553.86 6930.63)">
<stop stop-color="#131215"/>
<stop offset="0.495" stop-color="#2E2A3F"/>
<stop offset="1"/>
</radialGradient>
<radialGradient id="paint4_radial_301_3270" cx="0" cy="0" r="1" gradientUnits="userSpaceOnUse" gradientTransform="translate(582.637 1130.75) rotate(-24.6505) scale(553.937 7391.76)">
<stop stop-color="#131215"/>
<stop offset="0.495" stop-color="#2E2A3F"/>
<stop offset="1"/>
</radialGradient>
<radialGradient id="paint5_radial_301_3270" cx="0" cy="0" r="1" gradientUnits="userSpaceOnUse" gradientTransform="translate(567.787 1105.75) rotate(-24.2362) scale(553.849 7955.53)">
<stop stop-color="#131215"/>
<stop offset="0.495" stop-color="#2E2A3F"/>
<stop offset="1"/>
</radialGradient>
<radialGradient id="paint6_radial_301_3270" cx="0" cy="0" r="1" gradientUnits="userSpaceOnUse" gradientTransform="translate(551.722 1079) rotate(-23.7673) scale(553.79 8591.86)">
<stop stop-color="#131215"/>
<stop offset="0.495" stop-color="#2E2A3F"/>
<stop offset="1"/>
</radialGradient>
<radialGradient id="paint7_radial_301_3270" cx="0" cy="0" r="1" gradientUnits="userSpaceOnUse" gradientTransform="translate(535.563 1052.3) rotate(-23.2973) scale(553.758 9227.85)">
<stop stop-color="#131215"/>
<stop offset="0.495" stop-color="#2E2A3F"/>
<stop offset="1"/>
</radialGradient>
<radialGradient id="paint8_radial_301_3270" cx="0" cy="0" r="1" gradientUnits="userSpaceOnUse" gradientTransform="translate(520.002 1026.54) rotate(-22.8664) scale(553.595 9806.31)">
<stop stop-color="#131215"/>
<stop offset="0.495" stop-color="#2E2A3F"/>
<stop offset="1"/>
</radialGradient>
<radialGradient id="paint9_radial_301_3270" cx="0" cy="0" r="1" gradientUnits="userSpaceOnUse" gradientTransform="translate(504.878 1001.43) rotate(-22.4063) scale(553.552 10423.5)">
<stop stop-color="#131215"/>
<stop offset="0.495" stop-color="#2E2A3F"/>
<stop offset="1"/>
</radialGradient>
<radialGradient id="paint10_radial_301_3270" cx="0" cy="0" r="1" gradientUnits="userSpaceOnUse" gradientTransform="translate(490.885 977.922) rotate(-22.0537) scale(553.231 10889)">
<stop stop-color="#131215"/>
<stop offset="0.495" stop-color="#2E2A3F"/>
<stop offset="1"/>
</radialGradient>
<radialGradient id="paint11_radial_301_3270" cx="0" cy="0" r="1" gradientUnits="userSpaceOnUse" gradientTransform="translate(479.968 956.445) rotate(-21.7355) scale(551.535 11278.4)">
<stop stop-color="#131215"/>
<stop offset="0.495" stop-color="#2E2A3F"/>
<stop offset="1"/>
</radialGradient>
<radialGradient id="paint12_radial_301_3270" cx="0" cy="0" r="1" gradientUnits="userSpaceOnUse" gradientTransform="translate(472.307 937.779) rotate(-21.4686) scale(548.629 11570.7)">
<stop stop-color="#131215"/>
<stop offset="0.495" stop-color="#2E2A3F"/>
<stop offset="1"/>
</radialGradient>
<radialGradient id="paint13_radial_301_3270" cx="0" cy="0" r="1" gradientUnits="userSpaceOnUse" gradientTransform="translate(465.031 917.581) rotate(-21.1542) scale(545.076 11906.1)">
<stop stop-color="#131215"/>
<stop offset="0.495" stop-color="#2E2A3F"/>
<stop offset="1"/>
</radialGradient>
<radialGradient id="paint14_radial_301_3270" cx="0" cy="0" r="1" gradientUnits="userSpaceOnUse" gradientTransform="translate(457.486 895.413) rotate(-20.7783) scale(541.338 12309.9)">
<stop stop-color="#131215"/>
<stop offset="0.495" stop-color="#2E2A3F"/>
<stop offset="1"/>
</radialGradient>
<radialGradient id="paint15_radial_301_3270" cx="0" cy="0" r="1" gradientUnits="userSpaceOnUse" gradientTransform="translate(449.8 871.942) rotate(-20.3722) scale(537.872 12749.7)">
<stop stop-color="#131215"/>
<stop offset="0.495" stop-color="#2E2A3F"/>
<stop offset="1"/>
</radialGradient>
<radialGradient id="paint16_radial_301_3270" cx="0" cy="0" r="1" gradientUnits="userSpaceOnUse" gradientTransform="translate(442.054 847.77) rotate(-19.9449) scale(534.983 13221.3)">
<stop stop-color="#131215"/>
<stop offset="0.495" stop-color="#2E2A3F"/>
<stop offset="1"/>
</radialGradient>
<radialGradient id="paint17_radial_301_3270" cx="0" cy="0" r="1" gradientUnits="userSpaceOnUse" gradientTransform="translate(433.897 823.4) rotate(-19.4905) scale(533.122 13744.3)">
<stop stop-color="#131215"/>
<stop offset="0.495" stop-color="#2E2A3F"/>
<stop offset="1"/>
</radialGradient>
<radialGradient id="paint18_radial_301_3270" cx="0" cy="0" r="1" gradientUnits="userSpaceOnUse" gradientTransform="translate(425.2 799.597) rotate(-19.0199) scale(532.491 14313.1)">
<stop stop-color="#131215"/>
<stop offset="0.495" stop-color="#2E2A3F"/>
<stop offset="1"/>
</radialGradient>
<radialGradient id="paint19_radial_301_3270" cx="0" cy="0" r="1" gradientUnits="userSpaceOnUse" gradientTransform="translate(415.914 776.968) rotate(-18.5639) scale(533.372 14900.9)">
<stop stop-color="#131215"/>
<stop offset="0.495" stop-color="#2E2A3F"/>
<stop offset="1"/>
</radialGradient>
<radialGradient id="paint20_radial_301_3270" cx="0" cy="0" r="1" gradientUnits="userSpaceOnUse" gradientTransform="translate(405.795 755.633) rotate(-18.1266) scale(535.832 15509.5)">
<stop stop-color="#131215"/>
<stop offset="0.495" stop-color="#2E2A3F"/>
<stop offset="1"/>
</radialGradient>
<radialGradient id="paint21_radial_301_3270" cx="0" cy="0" r="1" gradientUnits="userSpaceOnUse" gradientTransform="translate(396.422 736.367) rotate(-17.7194) scale(538.727 16095.5)">
<stop stop-color="#131215"/>
<stop offset="0.495" stop-color="#2E2A3F"/>
<stop offset="1"/>
</radialGradient>
<radialGradient id="paint22_radial_301_3270" cx="0" cy="0" r="1" gradientUnits="userSpaceOnUse" gradientTransform="translate(388.769 720.664) rotate(-17.3982) scale(541.709 16580.6)">
<stop stop-color="#131215"/>
<stop offset="0.495" stop-color="#2E2A3F"/>
<stop offset="1"/>
</radialGradient>
<radialGradient id="paint23_radial_301_3270" cx="0" cy="0" r="1" gradientUnits="userSpaceOnUse" gradientTransform="translate(383.256 709.207) rotate(-17.1986) scale(544.488 16912.1)">
<stop stop-color="#131215"/>
<stop offset="0.495" stop-color="#2E2A3F"/>
<stop offset="1"/>
</radialGradient>
<radialGradient id="paint24_radial_301_3270" cx="0" cy="0" r="1" gradientUnits="userSpaceOnUse" gradientTransform="translate(378.311 699.202) rotate(-17.0499) scale(547.048 17175.4)">
<stop stop-color="#131215"/>
<stop offset="0.495" stop-color="#2E2A3F"/>
<stop offset="1"/>
</radialGradient>
<radialGradient id="paint25_radial_301_3270" cx="0" cy="0" r="1" gradientUnits="userSpaceOnUse" gradientTransform="translate(373.588 690.048) rotate(-16.9451) scale(549.288 17375.5)">
<stop stop-color="#131215"/>
<stop offset="0.495" stop-color="#2E2A3F"/>
<stop offset="1"/>
</radialGradient>
<radialGradient id="paint26_radial_301_3270" cx="0" cy="0" r="1" gradientUnits="userSpaceOnUse" gradientTransform="translate(368.852 681.725) rotate(-16.8776) scale(551.124 17517.3)">
<stop stop-color="#131215"/>
<stop offset="0.495" stop-color="#2E2A3F"/>
<stop offset="1"/>
</radialGradient>
<radialGradient id="paint27_radial_301_3270" cx="0" cy="0" r="1" gradientUnits="userSpaceOnUse" gradientTransform="translate(364.471 674.053) rotate(-16.8668) scale(552.494 17574.3)">
<stop stop-color="#131215"/>
<stop offset="0.495" stop-color="#2E2A3F"/>
<stop offset="1"/>
</radialGradient>
<radialGradient id="paint28_radial_301_3270" cx="0" cy="0" r="1" gradientUnits="userSpaceOnUse" gradientTransform="translate(360.695 666.554) rotate(-16.9086) scale(553.869 17566)">
<stop stop-color="#131215"/>
<stop offset="0.495" stop-color="#2E2A3F"/>
<stop offset="1"/>
</radialGradient>
<radialGradient id="paint29_radial_301_3270" cx="0" cy="0" r="1" gradientUnits="userSpaceOnUse" gradientTransform="translate(357.498 659.181) rotate(-16.9946) scale(555.215 17501)">
<stop stop-color="#131215"/>
<stop offset="0.495" stop-color="#2E2A3F"/>
<stop offset="1"/>
</radialGradient>
<radialGradient id="paint30_radial_301_3270" cx="0" cy="0" r="1" gradientUnits="userSpaceOnUse" gradientTransform="translate(354.834 651.639) rotate(-17.1171) scale(556.31 17381.7)">
<stop stop-color="#131215"/>
<stop offset="0.495" stop-color="#2E2A3F"/>
<stop offset="1"/>
</radialGradient>
<radialGradient id="paint31_radial_301_3270" cx="0" cy="0" r="1" gradientUnits="userSpaceOnUse" gradientTransform="translate(352.699 643.839) rotate(-17.2573) scale(557.027 17227.4)">
<stop stop-color="#131215"/>
<stop offset="0.495" stop-color="#2E2A3F"/>
<stop offset="1"/>
</radialGradient>
<radialGradient id="paint32_radial_301_3270" cx="0" cy="0" r="1" gradientUnits="userSpaceOnUse" gradientTransform="translate(351.132 636.132) rotate(-17.4225) scale(557.364 17029)">
<stop stop-color="#131215"/>
<stop offset="0.495" stop-color="#2E2A3F"/>
<stop offset="1"/>
</radialGradient>
<radialGradient id="paint33_radial_301_3270" cx="0" cy="0" r="1" gradientUnits="userSpaceOnUse" gradientTransform="translate(350.457 629.431) rotate(-17.6175) scale(557.348 16781.3)">
<stop stop-color="#131215"/>
<stop offset="0.495" stop-color="#2E2A3F"/>
<stop offset="1"/>
</radialGradient>
<radialGradient id="paint34_radial_301_3270" cx="0" cy="0" r="1" gradientUnits="userSpaceOnUse" gradientTransform="translate(349.414 623.571) rotate(-17.9583) scale(556.555 16324.1)">
<stop stop-color="#131215"/>
<stop offset="0.495" stop-color="#2E2A3F"/>
<stop offset="1"/>
</radialGradient>
<radialGradient id="paint35_radial_301_3270" cx="0" cy="0" r="1" gradientUnits="userSpaceOnUse" gradientTransform="translate(348.399 617.799) rotate(-18.2609) scale(555.703 15913.1)">
<stop stop-color="#131215"/>
<stop offset="0.495" stop-color="#2E2A3F"/>
<stop offset="1"/>
</radialGradient>
<radialGradient id="paint36_radial_301_3270" cx="0" cy="0" r="1" gradientUnits="userSpaceOnUse" gradientTransform="translate(347.669 612.852) rotate(-18.5509) scale(554.828 15517)">
<stop stop-color="#131215"/>
<stop offset="0.495" stop-color="#2E2A3F"/>
<stop offset="1"/>
</radialGradient>
<radialGradient id="paint37_radial_301_3270" cx="0" cy="0" r="1" gradientUnits="userSpaceOnUse" gradientTransform="translate(346.496 607.41) rotate(-18.8164) scale(553.836 15148.7)">
<stop stop-color="#131215"/>
<stop offset="0.495" stop-color="#2E2A3F"/>
<stop offset="1"/>
</radialGradient>
<radialGradient id="paint38_radial_301_3270" cx="0" cy="0" r="1" gradientUnits="userSpaceOnUse" gradientTransform="translate(344.819 601.797) rotate(-19.0833) scale(552.848 14778.6)">
<stop stop-color="#131215"/>
<stop offset="0.495" stop-color="#2E2A3F"/>
<stop offset="1"/>
</radialGradient>
<radialGradient id="paint39_radial_301_3270" cx="0" cy="0" r="1" gradientUnits="userSpaceOnUse" gradientTransform="translate(342.623 596.141) rotate(-19.367) scale(551.815 14385.7)">
<stop stop-color="#131215"/>
<stop offset="0.495" stop-color="#2E2A3F"/>
<stop offset="1"/>
</radialGradient>
<radialGradient id="paint40_radial_301_3270" cx="0" cy="0" r="1" gradientUnits="userSpaceOnUse" gradientTransform="translate(339.683 590.135) rotate(-19.6804) scale(550.676 13951.7)">
<stop stop-color="#131215"/>
<stop offset="0.495" stop-color="#2E2A3F"/>
<stop offset="1"/>
</radialGradient>
<radialGradient id="paint41_radial_301_3270" cx="0" cy="0" r="1" gradientUnits="userSpaceOnUse" gradientTransform="translate(335.984 584.425) rotate(-19.9742) scale(549.443 13540.7)">
<stop stop-color="#131215"/>
<stop offset="0.495" stop-color="#2E2A3F"/>
<stop offset="1"/>
</radialGradient>
<radialGradient id="paint42_radial_301_3270" cx="0" cy="0" r="1" gradientUnits="userSpaceOnUse" gradientTransform="translate(331.393 578.111) rotate(-20.3271) scale(547.916 13046.3)">
<stop stop-color="#131215"/>
<stop offset="0.495" stop-color="#2E2A3F"/>
<stop offset="1"/>
</radialGradient>
<radialGradient id="paint43_radial_301_3270" cx="0" cy="0" r="1" gradientUnits="userSpaceOnUse" gradientTransform="translate(326.47 571.461) rotate(-20.7049) scale(545.834 12507.4)">
<stop stop-color="#131215"/>
<stop offset="0.495" stop-color="#2E2A3F"/>
<stop offset="1"/>
</radialGradient>
<radialGradient id="paint44_radial_301_3270" cx="0" cy="0" r="1" gradientUnits="userSpaceOnUse" gradientTransform="translate(321.084 564.169) rotate(-21.0868) scale(543.462 11958.3)">
<stop stop-color="#131215"/>
<stop offset="0.495" stop-color="#2E2A3F"/>
<stop offset="1"/>
</radialGradient>
<radialGradient id="paint45_radial_301_3270" cx="0" cy="0" r="1" gradientUnits="userSpaceOnUse" gradientTransform="translate(315.424 556.622) rotate(-21.4686) scale(540.783 11405.2)">
<stop stop-color="#131215"/>
<stop offset="0.495" stop-color="#2E2A3F"/>
<stop offset="1"/>
</radialGradient>
<radialGradient id="paint46_radial_301_3270" cx="0" cy="0" r="1" gradientUnits="userSpaceOnUse" gradientTransform="translate(309.245 548.368) rotate(-21.8359) scale(537.956 10870.7)">
<stop stop-color="#131215"/>
<stop offset="0.495" stop-color="#2E2A3F"/>
<stop offset="1"/>
</radialGradient>
<radialGradient id="paint47_radial_301_3270" cx="0" cy="0" r="1" gradientUnits="userSpaceOnUse" gradientTransform="translate(302.7 539.481) rotate(-22.1789) scale(534.998 10368.4)">
<stop stop-color="#131215"/>
<stop offset="0.495" stop-color="#2E2A3F"/>
<stop offset="1"/>
</radialGradient>
<radialGradient id="paint48_radial_301_3270" cx="0" cy="0" r="1" gradientUnits="userSpaceOnUse" gradientTransform="translate(295.878 530.218) rotate(-22.4907) scale(532.055 9909.93)">
<stop stop-color="#131215"/>
<stop offset="0.495" stop-color="#2E2A3F"/>
<stop offset="1"/>
</radialGradient>
<radialGradient id="paint49_radial_301_3270" cx="0" cy="0" r="1" gradientUnits="userSpaceOnUse" gradientTransform="translate(288.908 520.759) rotate(-22.7654) scale(529.211 9504.27)">
<stop stop-color="#131215"/>
<stop offset="0.495" stop-color="#2E2A3F"/>
<stop offset="1"/>
</radialGradient>
<radialGradient id="paint50_radial_301_3270" cx="0" cy="0" r="1" gradientUnits="userSpaceOnUse" gradientTransform="translate(281.77 510.909) rotate(-22.9944) scale(526.496 9162.33)">
<stop stop-color="#131215"/>
<stop offset="0.495" stop-color="#2E2A3F"/>
<stop offset="1"/>
</radialGradient>
<radialGradient id="paint51_radial_301_3270" cx="0" cy="0" r="1" gradientUnits="userSpaceOnUse" gradientTransform="translate(274.164 500.448) rotate(-23.1757) scale(524.128 8889.51)">
<stop stop-color="#131215"/>
<stop offset="0.495" stop-color="#2E2A3F"/>
<stop offset="1"/>
</radialGradient>
<radialGradient id="paint52_radial_301_3270" cx="0" cy="0" r="1" gradientUnits="userSpaceOnUse" gradientTransform="translate(266.383 489.468) rotate(-23.3101) scale(522.017 8682.56)">
<stop stop-color="#131215"/>
<stop offset="0.495" stop-color="#2E2A3F"/>
<stop offset="1"/>
</radialGradient>
<radialGradient id="paint53_radial_301_3270" cx="0" cy="0" r="1" gradientUnits="userSpaceOnUse" gradientTransform="translate(259.522 480.018) rotate(-23.4974) scale(520.225 8414.73)">
<stop stop-color="#131215"/>
<stop offset="0.495" stop-color="#2E2A3F"/>
<stop offset="1"/>
</radialGradient>
<radialGradient id="paint54_radial_301_3270" cx="0" cy="0" r="1" gradientUnits="userSpaceOnUse" gradientTransform="translate(252.334 470.156) rotate(-23.6726) scale(519.004 8172.62)">
<stop stop-color="#131215"/>
<stop offset="0.495" stop-color="#2E2A3F"/>
<stop offset="1"/>
</radialGradient>
<radialGradient id="paint55_radial_301_3270" cx="0" cy="0" r="1" gradientUnits="userSpaceOnUse" gradientTransform="translate(244.26 460.643) rotate(-23.8667) scale(519.29 7930.17)">
<stop stop-color="#131215"/>
<stop offset="0.495" stop-color="#2E2A3F"/>
<stop offset="1"/>
</radialGradient>
<radialGradient id="paint56_radial_301_3270" cx="0" cy="0" r="1" gradientUnits="userSpaceOnUse" gradientTransform="translate(236.53 451.253) rotate(-24.0782) scale(522.113 7702.3)">
<stop stop-color="#131215"/>
<stop offset="0.495" stop-color="#2E2A3F"/>
<stop offset="1"/>
</radialGradient>
<radialGradient id="paint57_radial_301_3270" cx="0" cy="0" r="1" gradientUnits="userSpaceOnUse" gradientTransform="translate(228.656 441.687) rotate(-24.2796) scale(526.814 7510.89)">
<stop stop-color="#131215"/>
<stop offset="0.495" stop-color="#2E2A3F"/>
<stop offset="1"/>
</radialGradient>
<radialGradient id="paint58_radial_301_3270" cx="0" cy="0" r="1" gradientUnits="userSpaceOnUse" gradientTransform="translate(220.895 432.118) rotate(-24.5325) scale(532.927 7266.4)">
<stop stop-color="#131215"/>
<stop offset="0.495" stop-color="#2E2A3F"/>
<stop offset="1"/>
</radialGradient>
<radialGradient id="paint59_radial_301_3270" cx="0" cy="0" r="1" gradientUnits="userSpaceOnUse" gradientTransform="translate(213.081 422.19) rotate(-24.7955) scale(540.179 7014.98)">
<stop stop-color="#131215"/>
<stop offset="0.495" stop-color="#2E2A3F"/>
<stop offset="1"/>
</radialGradient>
<radialGradient id="paint60_radial_301_3270" cx="0" cy="0" r="1" gradientUnits="userSpaceOnUse" gradientTransform="translate(205.251 411.44) rotate(-25.0628) scale(548.042 6755.23)">
<stop stop-color="#131215"/>
<stop offset="0.495" stop-color="#2E2A3F"/>
<stop offset="1"/>
</radialGradient>
<radialGradient id="paint61_radial_301_3270" cx="0" cy="0" r="1" gradientUnits="userSpaceOnUse" gradientTransform="translate(196.569 398.455) rotate(-25.3198) scale(556.297 6503.34)">
<stop stop-color="#131215"/>
<stop offset="0.495" stop-color="#2E2A3F"/>
<stop offset="1"/>
</radialGradient>
<radialGradient id="paint62_radial_301_3270" cx="0" cy="0" r="1" gradientUnits="userSpaceOnUse" gradientTransform="translate(188.034 384.664) rotate(-25.6266) scale(564.44 6169.46)">
<stop stop-color="#131215"/>
<stop offset="0.495" stop-color="#2E2A3F"/>
<stop offset="1"/>
</radialGradient>
<radialGradient id="paint63_radial_301_3270" cx="0" cy="0" r="1" gradientUnits="userSpaceOnUse" gradientTransform="translate(179.865 370.198) rotate(-25.9666) scale(572.138 5770.79)">
<stop stop-color="#131215"/>
<stop offset="0.495" stop-color="#2E2A3F"/>
<stop offset="1"/>
</radialGradient>
<radialGradient id="paint64_radial_301_3270" cx="0" cy="0" r="1" gradientUnits="userSpaceOnUse" gradientTransform="translate(172.067 354.828) rotate(-26.3196) scale(578.999 5331.8)">
<stop stop-color="#131215"/>
<stop offset="0.495" stop-color="#2E2A3F"/>
<stop offset="1"/>
</radialGradient>
<radialGradient id="paint65_radial_301_3270" cx="0" cy="0" r="1" gradientUnits="userSpaceOnUse" gradientTransform="translate(164.798 338.623) rotate(-26.6663) scale(584.693 4879.4)">
<stop stop-color="#131215"/>
<stop offset="0.495" stop-color="#2E2A3F"/>
<stop offset="1"/>
</radialGradient>
<radialGradient id="paint66_radial_301_3270" cx="0" cy="0" r="1" gradientUnits="userSpaceOnUse" gradientTransform="translate(159 322.966) rotate(-26.7391) scale(588.983 4808.46)">
<stop stop-color="#131215"/>
<stop offset="0.495" stop-color="#2E2A3F"/>
<stop offset="1"/>
</radialGradient>
</defs>
</svg>
