<svg width="32" height="32" viewBox="0 0 32 32" fill="none" xmlns="http://www.w3.org/2000/svg">
<path d="M11 24H4V26C4 27.1046 4.89543 28 6 28H26C27.1046 28 28 27.1046 28 26V24H21C21 24.5523 20.5523 25 20 25H12C11.4477 25 11 24.5523 11 24Z" fill="white"/>
<path d="M16 6C15.7239 6 15.5 6.22386 15.5 6.5V18.7929L12.3536 15.6464C12.1583 15.4512 11.8417 15.4512 11.6464 15.6464C11.4512 15.8417 11.4512 16.1583 11.6464 16.3536L16 20.7071L20.3536 16.3536C20.5488 16.1583 20.5488 15.8417 20.3536 15.6464C20.1583 15.4512 19.8417 15.4512 19.6464 15.6464L16.5 18.7929V6.5C16.5 6.22386 16.2761 6 16 6Z" fill="white"/>
</svg>
