<svg width="1017" height="1060" viewBox="0 0 1017 1060" fill="none" xmlns="http://www.w3.org/2000/svg">
<mask id="mask0_477_3170" style="mask-type:luminance" maskUnits="userSpaceOnUse" x="0" y="0" width="1017" height="1060">
<path d="M508.43 1060C789.228 1060 1016.86 822.711 1016.86 530C1016.86 237.289 789.228 0 508.43 0C227.632 0 0 237.289 0 530C0 822.711 227.632 1060 508.43 1060Z" fill="white"/>
</mask>
<g mask="url(#mask0_477_3170)">
<path d="M998.83 937.348C953.972 930.38 910.163 916.74 865.065 911.537C835.095 908.121 789.593 902.428 780.287 940.445C776.366 956.464 776.704 972.678 765.771 985.93C749.29 1005.9 711.51 1016.02 690.255 1030.33C642.841 1062.13 586.494 1100.05 526.858 1090.77C491.754 1085.3 459.053 1068.82 424.703 1060.14C388.659 1051.03 355.401 1058.79 319.172 1062.32C253.748 1068.68 187.57 1067.2 122.386 1075.67C64.5744 1083.2 3.48633 1099.26 -54.904 1089.33" stroke="url(#paint0_linear_477_3170)" stroke-width="1.5" stroke-miterlimit="10"/>
<path d="M998.327 922.08C944.065 912.095 889.815 890.906 836.361 889.597C800.383 888.709 783.607 895.085 776.398 933.204C767.835 978.473 720.946 986.295 688.627 1009.7C655.216 1033.91 621.619 1057.6 582.681 1071.62C527.327 1091.53 474.256 1058.27 420.519 1046.33C390.483 1039.65 363.406 1045.43 333.567 1048.94C305.256 1052.26 276.771 1054.23 248.373 1055.77C195.772 1058.56 143.684 1059.63 91.3225 1066.14C43.7343 1072.07 -7.41453 1081.14 -54.8935 1069.8" stroke="url(#paint1_linear_477_3170)" stroke-width="1.5" stroke-miterlimit="10"/>
<path d="M998.468 906.641C943.758 896.018 889.792 869.512 836.152 868.351C821.691 868.032 799.814 867.292 787.669 879.042C778.133 888.265 778.603 899.912 775.916 912.06C766.086 956.897 719.121 964.514 687.086 989.346C654.057 1014.99 621.061 1040.81 582.046 1056.6C527.086 1078.84 472.103 1044.08 418.278 1033.21C390.055 1027.52 365.022 1033.03 336.919 1036.63C308.357 1040.29 279.621 1042.39 250.873 1043.84C197.463 1046.52 144.327 1046.67 91.0481 1052.06C43.5036 1056.85 -8.11494 1064.14 -54.9058 1050.21" stroke="url(#paint2_linear_477_3170)" stroke-width="1.5" stroke-miterlimit="10"/>
<path d="M998.294 891.35C942.591 879.657 889.334 845.626 835.181 843.212C799.367 841.618 782.045 850.635 774.683 888.595C771.319 905.981 768.599 919.495 753.035 929.708C730.786 944.293 706.55 952.479 685.678 969.455C652.911 996.2 620.494 1024.11 581.436 1041.67C527.917 1065.72 472.071 1031.54 419.284 1021.18C391.225 1015.65 366.672 1021.05 338.766 1024.85C310.477 1028.68 281.97 1030.84 253.485 1032.19C200.228 1034.72 147.113 1033.72 93.9107 1037.76C45.2849 1041.46 -7.76442 1047.37 -54.9048 1030.76" stroke="url(#paint3_linear_477_3170)" stroke-width="1.5" stroke-miterlimit="10"/>
<path d="M997.769 876.15C940.613 862.488 888.831 820.292 833.564 815.089C800.175 811.947 777.599 820.714 770.991 858.355C768.053 875.114 764.776 890.029 752.729 902.371C734.161 921.419 704.583 932.976 684.421 949.986C651.764 977.596 619.095 1009.29 580.769 1026.66C527.174 1050.95 472.639 1018.11 416.935 1008.3C391.148 1003.75 367.567 1008.87 342.085 1012.6C313.535 1016.77 284.733 1018.99 255.942 1020.29C203.919 1022.64 151.929 1020.46 99.9174 1023.16C49.129 1025.79 -6.50881 1030.76 -55.0145 1011.19" stroke="url(#paint4_linear_477_3170)" stroke-width="1.5" stroke-miterlimit="10"/>
<path d="M996.974 861.042C937.994 844.612 888.144 794.151 831.513 784.895C799.915 779.737 773.952 787.172 765.521 822.82C761.862 838.327 758.869 853.675 749.454 866.825C732.59 890.371 703.362 909.92 683.156 930.414C652.574 961.44 618.114 992.875 580.236 1011.51C527.874 1037.22 473.078 1005.59 418.029 996.109C392.428 991.691 369.207 996.655 343.955 1000.57C315.646 1004.78 287.142 1007.41 258.565 1008.45C206.63 1010.66 154.804 1007.44 102.814 1008.85C50.8238 1010.26 -6.05924 1013.7 -54.9035 991.68" stroke="url(#paint5_linear_477_3170)" stroke-width="1.5" stroke-miterlimit="10"/>
<path d="M995.959 845.944C934.434 827.852 886.736 769.501 829.209 753.493C800.669 745.523 769.759 749.087 758.531 782.56C752.917 799.309 748.952 815.92 738.631 830.596C720.238 856.783 697.06 879.008 678.744 905.457C652.399 943.507 618.672 975.615 579.668 996.143C529.328 1022.61 475.667 994.071 422.191 984.518C370.081 975.216 313.941 994.458 261.176 996.564C210.409 998.591 159.839 994.356 109.094 994.481C54.8 994.617 -4.63884 996.997 -54.903 972.085" stroke="url(#paint6_linear_477_3170)" stroke-width="1.5" stroke-miterlimit="10"/>
<path d="M994.832 831.018C931.155 809.18 885.707 743.246 826.848 721.955C801.803 712.846 765.585 712.118 751.167 741.743C744.046 756.374 739.153 771.596 730.284 785.339C710.231 816.342 688.441 842.119 670.856 875.547C647.231 920.452 621.269 957.022 579.109 980.647C529.621 1008.39 476.44 981.592 423.118 972.381C371.226 963.398 316.189 982.811 263.653 984.769C212.898 986.67 162.535 981.467 111.834 980.328C56.3164 979.087 -4.36756 979.839 -54.9921 952.616" stroke="url(#paint7_linear_477_3170)" stroke-width="1.5" stroke-miterlimit="10"/>
<path d="M993.632 816.068C928.579 788.31 887.959 720.133 824.61 691.009C801.007 680.158 761.709 681.069 744.157 703.226C734.01 716.023 727.402 731.974 717.605 745.204C694.188 776.834 676.221 805.07 660.351 841.914C641.237 886.318 620.867 940.468 578.63 964.787C528.738 993.49 477.305 969.023 424.092 960.165C372.419 951.569 318.485 971.083 266.276 972.917C215.477 974.693 165.355 968.544 114.708 966.085C56.7332 963.33 -2.15962 960.95 -54.925 933.067" stroke="url(#paint8_linear_477_3170)" stroke-width="1.5" stroke-miterlimit="10"/>
<path d="M992.538 801.119C925.912 769.33 887.248 695.233 822.763 661.622C801.366 650.442 757.918 647.823 737.569 664.697C725.631 674.579 717.09 689.563 707.129 701.427C680.129 733.614 663.167 766.621 648.204 806.049C630.521 852.662 614.683 913.984 575.669 947.481C533.356 983.801 472.257 955.451 425.106 947.936C373.629 939.773 320.831 959.322 268.918 961.053C218.031 962.703 168.193 955.633 117.58 951.944C58.3264 947.629 -1.62577 943.61 -54.8498 913.563" stroke="url(#paint9_linear_477_3170)" stroke-width="1.5" stroke-miterlimit="10"/>
<path d="M991.446 786.136C923.663 750.692 888.777 669.695 821.343 634.707C799.739 623.492 755.34 619.132 732.174 629.766C717.899 636.324 706.037 651.273 695.039 662.203C665.319 691.897 649.253 730.084 635.086 769.33C616.901 819.894 603.827 885.794 568.854 927.921C533.706 970.241 470.182 942.312 426.046 935.708C374.766 928.046 323.082 947.652 271.43 949.212C220.424 950.749 170.88 942.79 120.299 937.826C59.8994 931.871 -0.631656 926.11 -54.4565 894.447" stroke="url(#paint10_linear_477_3170)" stroke-width="1.5" stroke-miterlimit="10"/>
<path d="M990.616 771.106C922.45 732.68 889.345 647.835 820.709 611.093C799.029 599.48 753.516 595.347 728.799 600.459C671.282 612.334 640.132 684.428 622.22 733.044C601.806 788.447 589.66 855.189 559.034 906.459C530.527 954.107 469.363 929.264 427.006 923.366C375.956 916.284 325.342 935.89 273.986 937.291C222.826 938.725 173.61 929.89 123.062 923.628C63.962 916.273 0.733192 910.364 -51.2567 877.254" stroke="url(#paint11_linear_477_3170)" stroke-width="1.5" stroke-miterlimit="10"/>
<path d="M990.014 755.998C922.165 715.522 890.294 628.764 821.101 591.089C798.427 578.747 753.984 576.287 727.771 577.711C664.225 581.195 631.459 645.808 610.291 698.603C586.579 757.74 572.97 824.676 546.942 883.699C523.306 937.302 468.815 915.487 425.028 910.603C375.266 905.07 326.553 924.118 276.551 925.404C224.124 926.748 174.002 916.694 122.395 908.963C66.5494 900.606 3.0584 894.344 -45.6548 861.895" stroke="url(#paint12_linear_477_3170)" stroke-width="1.5" stroke-miterlimit="10"/>
<path d="M989.752 740.741C922.034 698.797 891.856 610.422 822.904 571.016C805.264 560.94 784.184 562.499 764.743 559.551C752.051 557.626 739.294 554.507 726.406 555.167C663.461 558.412 624.523 614.725 600.298 667.247C572.249 728.046 555.451 795.529 533.322 860.04C514.536 914.77 474.67 904.295 428.982 898.66C378.62 892.454 329.655 912.322 279.096 913.552C225.326 914.793 174.45 903.373 121.816 894.196C69.1819 885.02 6.88144 880.203 -38.3475 847.868" stroke="url(#paint13_linear_477_3170)" stroke-width="1.5" stroke-miterlimit="10"/>
<path d="M989.919 725.257C922.278 682.071 894.328 591.863 825.801 550.408C808.326 539.865 787.672 541.06 768.329 537.52C753.857 534.867 738.948 530.301 724.137 530.688C665.747 532.191 618.519 595.062 593.18 640.286C559.736 699.947 538.568 768.408 518.908 835.948C512.999 856.271 505.332 880.591 484.23 888.458C467.06 894.857 446.832 889.335 429.324 887.32C379.289 881.399 331.81 900.652 281.623 901.711C227.459 902.849 177.25 889.938 124.484 879.93C73.0189 870.173 13.5036 868.545 -30.0652 834.57" stroke="url(#paint14_linear_477_3170)" stroke-width="1.5" stroke-miterlimit="10"/>
<path d="M990.78 709.784C923.521 664.822 897.515 573.145 829.492 529.424C811.874 518.107 790.335 518.847 770.511 514.521C754.292 510.98 737.887 505.412 721.187 504.934C659.716 503.067 619.916 574.955 589.847 618.927C550.396 676.595 523.33 743.417 504.5 811.844C499.203 831.097 494.998 859.664 477.195 871.585C463.586 880.693 445.804 877.733 430.633 876.48C380.249 872.325 334.419 888.731 284.144 889.676C231.237 890.667 182.906 876.651 131.233 868.044C79.2211 859.345 21.2785 857.706 -21.482 821.42" stroke="url(#paint15_linear_477_3170)" stroke-width="1.5" stroke-miterlimit="10"/>
<path d="M992.417 694.516C925.595 647.402 901.271 554.256 833.651 508.304C816.176 496.44 794.746 496.645 774.977 491.749C756.169 487.104 737.437 479.977 718.039 478.565C651.141 473.703 616.725 550.397 587.093 599.913C550.317 661.395 510.801 718.653 490.911 788.322C479.072 829.765 477.302 866.757 428.109 865.744C403.992 865.232 383.142 864.548 359.386 869.296C335.27 874.101 311.251 877.46 286.644 877.881C235.178 878.769 187.131 865.357 136.649 858.172C83.5665 850.59 29.1956 846.582 -13.1063 808.155" stroke="url(#paint16_linear_477_3170)" stroke-width="1.5" stroke-miterlimit="10"/>
<path d="M994.722 679.373C928.369 629.834 905.454 535.174 837.988 487.036C819.321 473.726 794.921 473.373 773.546 467.282C754.17 461.726 734.925 454.211 714.861 451.82C641.923 443.087 610.892 523.071 581.97 578.724C549.302 641.584 501.047 699.264 478.81 765.653C467.003 800.948 470.345 851.819 424.515 855.064C402.376 856.635 381.624 855.178 359.593 859.118C336.078 863.33 312.781 866.609 288.861 867.087C239.252 868.055 192.232 856.465 143.377 850.385C86.6796 843.326 38.6981 833.933 -5.86459 794.037" stroke="url(#paint17_linear_477_3170)" stroke-width="1.5" stroke-miterlimit="10"/>
<path d="M997.431 664.31C931.635 612.061 909.627 515.283 842.095 465.824C824.007 452.571 800.874 451.695 779.969 445.33C757.436 438.499 735.286 429.231 712.011 425.36C633.065 412.221 603.64 494.129 575.079 555.941C558.772 591.237 542.104 626.532 522.018 659.698C504.685 688.322 482.021 714.349 468.991 744.316C454.268 778.234 461.149 839.249 414.773 845.193C374.295 850.373 331.764 856.578 290.948 857.717C244.462 858.946 199.703 849.997 153.786 844.635C92.5122 837.473 46.6389 821.989 -0.414109 778.598" stroke="url(#paint18_linear_477_3170)" stroke-width="1.5" stroke-miterlimit="10"/>
<path d="M1000.53 649.235C935.251 594.231 913.81 496.008 845.743 444.784C827.481 431.041 803.474 429.664 782.23 422.775C758.201 414.965 734.664 404.832 709.87 399.731C625.157 382.322 595.929 464.014 567.095 532.089C551.683 568.522 536.338 605.184 518.097 640.252C502.085 670.993 479.28 696.599 462.241 724.779C447.988 748.347 447.343 775.877 439.523 802.804C434.586 819.803 427.508 830.722 410.295 835.264C394.654 839.386 377.681 838.532 361.713 840.957C338.678 844.441 316.156 848.517 292.837 849.451C248.897 851.227 205.874 844.988 162.36 839.978C96.7175 832.418 51.98 807.028 2.61148 761.326" stroke="url(#paint19_linear_477_3170)" stroke-width="1.5" stroke-miterlimit="10"/>
<path d="M1003.84 634.081C938.865 576.515 917.665 476.447 848.571 424.073C829.948 409.955 805.788 408.487 784.13 401.12C759.008 392.558 734.575 381.605 708.766 375.491C684.016 369.639 657.432 368.58 634.495 381.514C594.454 404.058 574.827 467.453 558.607 507.701C532.252 573.1 505.197 656.283 459.357 707.393C439.784 729.219 437.25 756.806 430.489 785.783C426.503 802.861 422.003 817.81 405.368 825.302C391.584 831.519 374.786 830.938 360.117 833.272C338.185 836.688 316.647 840.775 294.464 842.107C253.385 844.589 212.296 841.322 171.501 836.312C101.053 827.659 55.7254 789.244 2.89455 742.381" stroke="url(#paint20_linear_477_3170)" stroke-width="1.5" stroke-miterlimit="10"/>
<path d="M1007.22 618.767C942.633 558.572 920.93 456.91 850.285 403.818C831.248 389.507 805.908 387.719 783.823 379.966C758.877 371.21 734.673 359.87 709.093 353.152C684.212 346.617 656.94 344.044 632.791 355.088C588.545 375.263 566.995 441.209 550.175 483.279C523.35 550.363 503.657 634.491 458.002 690.599C438.702 714.327 429.473 736.29 422.974 766.416C419.348 783.267 416.847 802.451 402.725 813.575C390.197 823.446 370.799 823.822 355.934 826.441C335.902 829.97 316.1 833.659 295.861 835.435C256.399 838.851 215.408 838.851 176.197 832.509C104.46 820.998 57.68 769.137 2.39166 724.881" stroke="url(#paint21_linear_477_3170)" stroke-width="1.5" stroke-miterlimit="10"/>
<path d="M1010.54 603.214C947.331 541.732 925.29 435.653 850.56 387.867C830.539 375.058 804.926 376.333 782.612 368.956C757.852 360.758 734.358 348.997 709.914 339.9C684.618 330.495 656.144 322.377 630.072 333.33C584.265 352.595 560.225 416.525 542.454 459.346C513.936 528.104 495.838 610.228 455.076 672.507C439.108 696.895 424.319 719.496 416.848 748.54C412.359 766.097 410.83 787.889 398.281 801.848C377.659 824.812 324.621 825.917 296.889 829.241C261.381 833.477 223.241 836.357 187.864 829.765C113.21 815.841 60.7726 752.707 1.39927 708.975" stroke="url(#paint22_linear_477_3170)" stroke-width="1.5" stroke-miterlimit="10"/>
<path d="M1013.64 587.343C952.213 525.485 927.354 422.183 850.603 377.609C830.43 365.893 805.385 368.295 783.333 361.088C758.376 352.947 734.926 340.526 710.744 330.176C686.562 319.827 658.722 309.352 632.18 316.24C583.249 329.038 554.927 394.425 535.988 436.404C504.729 505.856 486.751 585.908 450.795 653.357C436.017 681.046 419.12 709.567 410.23 740.229C405.129 757.797 402.977 778.758 391.258 793.252C371.707 817.4 325.309 818.96 297.676 823.332C265.237 828.456 229.532 833.967 197.082 826.441C169.001 819.939 143.487 805.07 120.266 787.809C79.4933 757.512 41.9754 723.207 0.121427 694.197" stroke="url(#paint23_linear_477_3170)" stroke-width="1.5" stroke-miterlimit="10"/>
<path d="M1016.41 571.073C957.432 510.194 927.789 409.033 850.875 369.297C830.953 359.05 807.317 362.466 785.953 355.794C760.1 347.71 736.137 334.264 711.682 322.571C688.647 311.538 662.532 298.843 636.471 302.464C586.764 309.375 551.747 375.104 531.476 414.965C496.524 483.779 477.127 562.033 445.55 633.42C432.717 662.465 419.905 692.364 408.513 722.16C401.414 740.741 398.585 762.374 388.34 779.521C370.864 808.816 327.798 811.4 298.144 817.469C268.239 823.537 235.494 831.132 205.523 822.16C173.488 812.596 145.899 791.976 119.969 770.924C80.6492 738.919 40.6629 708.383 -1.26759 680.113" stroke="url(#paint24_linear_477_3170)" stroke-width="1.5" stroke-miterlimit="10"/>
<path d="M1018.75 554.313C962.164 495.108 927.682 396.828 851.38 362.5C831.239 353.391 808.215 357.946 786.938 351.456C760.834 343.486 736.805 329.356 712.667 316.593C690.408 304.82 664.697 289.484 638.833 290.873C590.775 293.446 551.073 359.38 529.458 395.518C489.733 461.953 467.441 539.216 439.72 612.983C420.672 663.626 410.361 724.05 382.925 770.981C365.678 800.47 328.019 804 298.419 811.514C270.24 818.653 241.733 827.033 213.346 816.808C177.466 803.897 147.922 776.173 118.049 752.912C78.8495 722.399 38.317 693.98 -2.6632 666.188" stroke="url(#paint25_linear_477_3170)" stroke-width="1.5" stroke-miterlimit="10"/>
<path d="M1020.39 537.007C966.4 480.079 926.949 385.476 851.979 356.796C831.03 348.826 807.995 354.519 786.172 347.687C760.483 339.649 736.836 325.36 713.485 311.948C691.728 299.424 665.143 280.58 639.213 280.728C592.663 280.99 552.753 344.966 529.991 378.474C485.996 443.269 458.265 517.378 433.395 592.25C415.275 646.753 407.782 705.821 380.75 757.683C363.503 790.77 330.278 795.335 298.298 805.206C272.172 813.267 248.383 821.875 221.842 810.524C184.805 794.675 153.392 764.469 121.084 740.582C79.9292 710.148 37.6164 681.536 -4.16116 652.059" stroke="url(#paint26_linear_477_3170)" stroke-width="1.5" stroke-miterlimit="10"/>
<path d="M1021.69 521.102C965.342 468.022 929.648 376.174 852.733 351.809C831.468 345.057 809.219 351.809 787.255 345.091C761.271 337.122 737.395 322.32 714.207 308.157C692.886 295.097 666.968 274.102 641.421 271.984C596.115 268.239 554.403 331.292 531.674 362.546C485.786 425.552 450.449 496.193 427.159 571.483C409.509 628.673 407.892 691.134 379.178 745.683C360.894 780.397 331.535 786.193 298.135 798.375C271.725 808.007 253.354 814.873 226.802 801.028C191.064 782.424 158.811 753.857 125.869 730.437C82.1803 699.366 37.3991 669.729 -5.36144 637.235" stroke="url(#paint27_linear_477_3170)" stroke-width="1.5" stroke-miterlimit="10"/>
<path d="M1023.52 506.471C969.144 454.621 929.955 366.496 853.663 346.981C832.059 341.459 810.608 349.167 788.436 342.644C762.102 334.89 737.899 319.713 714.765 304.866C693.62 291.283 668.575 268.705 643.378 264.345C599.525 256.75 556.568 318.164 533.98 347.38C487.179 407.906 444.844 476.55 421.23 550.92C402.662 609.294 408.997 675.445 379.999 731.348C360.557 768.83 333.393 775.911 297.885 790.747C268.985 802.816 256.555 805.411 228.092 787.593C148.087 737.496 66.2573 682.344 -6.26636 621.204" stroke="url(#paint28_linear_477_3170)" stroke-width="1.5" stroke-miterlimit="10"/>
<path d="M1025.82 492.546C973.008 441.755 930.281 357.126 854.644 342.029C832.8 337.656 812.047 346.253 789.624 339.979C762.886 332.499 738.235 317.094 715.047 301.78C693.76 287.731 669.807 264.276 644.948 257.661C602.657 246.401 559.252 305.481 536.665 332.943C489.459 390.406 440.003 459.175 415.843 530.893C395.615 591.066 407.531 660.848 379.407 719.894C360.959 758.605 332.441 766.097 297.413 782.333C268.6 795.711 260.627 792.955 232.262 775.501C149.941 724.778 63.6665 671.414 -6.82562 603.715" stroke="url(#paint29_linear_477_3170)" stroke-width="1.5" stroke-miterlimit="10"/>
<path d="M1028.47 479.168C976.864 429.174 930.707 347.756 855.693 336.484C833.564 333.159 813.511 342.518 790.815 336.609C763.618 329.527 738.388 314.088 714.982 298.501C693.268 284.03 670.572 260.519 646.03 251.616C605.377 236.917 562.027 292.968 539.571 319.03C492.081 374.147 437.764 442.689 411.474 511.583C388.265 572.416 405.183 644.612 379.538 706.402C362.455 747.538 332.856 755.429 297.239 772.803C269.54 786.318 261.141 778.78 233.89 762.795C148.969 712.972 61.0562 658.139 -6.71629 584.439" stroke="url(#paint30_linear_477_3170)" stroke-width="1.5" stroke-miterlimit="10"/>
<path d="M1031.36 466.155C980.655 416.775 931.123 338.078 856.764 329.926C834.297 327.455 814.659 338.135 791.613 332.271C764.165 325.292 738.564 309.147 714.786 293.799C692.373 279.328 670.485 257.024 646.413 245.98C607.442 228.161 564.9 280.569 542.477 305.561C516.82 334.15 493.436 365.995 470.881 397.784C449.277 428.218 423.675 459.733 408.297 493.275C380.674 553.505 401.918 628.764 379.211 692.614C363.712 736.176 333.851 744.282 297.207 762.146C271.583 774.67 260.475 765.072 235.463 751.113C146.633 701.541 63.0012 642.825 -5.7434 565.528" stroke="url(#paint31_linear_477_3170)" stroke-width="1.5" stroke-miterlimit="10"/>
<path d="M1034.35 453.38C987.044 407.006 929.822 322.309 858.358 323.869C834.602 324.381 816.941 333.182 792.825 325.952C764.831 317.561 738.803 301.211 713.977 285.75C691.641 271.825 670.463 254.667 647.646 241.744C609.058 219.918 569.203 266.576 545.174 292.456C494.298 347.232 444.165 412.972 406.658 476.219C373.487 532.146 397.472 612.722 379.101 676.606C373.083 697.544 362.838 717.981 344.696 730.119C330.683 739.466 312.792 743.201 297.523 750.157C272.402 761.611 259.404 752.195 234.993 739.102C144.686 690.953 63.6544 625.886 -4.05101 547.152" stroke="url(#paint32_linear_477_3170)" stroke-width="1.5" stroke-miterlimit="10"/>
<path d="M1037.32 440.617C988.092 391.966 934.65 317.743 860.379 318.244C846.322 318.335 832.549 323.072 818.525 322.229C803.233 321.318 788.073 315.022 774.169 308.714C739.6 293.036 707.14 272.155 674.406 252.788C639.094 231.896 617.359 219.531 580.835 248.086C511.151 302.578 455.327 388.744 406.767 460.063C368.627 516.092 394.053 598.968 377.692 664.31C372.482 685.123 363.176 705.947 345.471 718.198C331.764 727.693 313.906 731.063 298.67 737.485C274.313 747.732 261.905 741.481 237.942 729.287C143.781 681.377 66.8123 610.661 -1.83401 528.992" stroke="url(#paint33_linear_477_3170)" stroke-width="1.5" stroke-miterlimit="10"/>
<path d="M1039.14 430.153C989.306 382.14 935.591 313.713 861.582 314.02C846.695 314.077 832.092 318.449 817.194 317.037C801.269 315.523 785.628 308.623 771.178 301.929C738.029 286.581 706.65 267.157 674.648 249.43C642.449 231.6 617.852 216.605 583.873 240.868C552.974 262.922 527.885 294.881 503.988 324.483C472.258 363.787 440.923 404.615 410.81 444.123C368.006 500.289 389.632 576.014 375.935 642.688C371.73 663.183 364.084 684.451 347.111 697.066C332.978 707.575 314.345 710.012 298.486 717.162C273.801 728.297 261.743 727.238 235.759 715.294C141.828 672.12 66.8139 593.912 0.133668 514.691" stroke="url(#paint34_linear_477_3170)" stroke-width="1.5" stroke-miterlimit="10"/>
<path d="M1040.8 419.508C990.867 372.554 935.589 308.498 862.672 308.874C847.174 308.942 831.817 312.984 816.384 311.151C800.175 309.181 784.327 302.042 769.56 295.211C737.23 280.25 706.375 261.863 674.701 245.536C645.877 230.734 620.089 215.147 588.47 232.681C557.986 249.6 532.952 283.188 510.823 309.819C478.559 348.678 447.387 389.267 415.931 428.058C369.97 484.759 384.977 549.918 374.339 618.733C371.062 639.614 364.76 662.625 348.006 676.185C333.807 687.639 314.321 689.233 298.287 697.134C272.074 710.057 260.136 713.268 231.072 700.299C139.937 659.63 66.4849 576.333 2.22934 500.38" stroke="url(#paint35_linear_477_3170)" stroke-width="1.5" stroke-miterlimit="10"/>
<path d="M1042.25 408.623C992.605 362.933 934.837 302.327 863.635 302.953C829.973 303.249 806.086 304.878 774.073 290.839C740.214 275.969 708.103 257.104 674.68 241.232C645.584 227.41 619.381 213.759 587.969 229.197C559.899 242.997 537.508 271.996 517.302 295.644C484.786 333.717 454.444 374.125 421.929 411.777C398.391 439.102 382.216 468.42 377.88 505.435C374.242 536.472 376.176 568.056 371.861 598.99C368.934 619.997 363.44 643.656 346.205 657.057C332.29 667.896 313.231 669.023 297.852 677.369C271.999 691.419 261.197 700.14 230.713 687.081C191.666 670.424 156.89 641.63 125.63 612.744C82.8055 573.04 42.268 530.733 4.22979 486.045" stroke="url(#paint36_linear_477_3170)" stroke-width="1.5" stroke-miterlimit="10"/>
<path d="M1043.39 397.431C994.241 353.107 933.71 295.382 864.496 296.327C828.846 296.816 804.216 297.272 770.717 282.505C738.235 268.182 707.139 250.693 674.602 236.507C646.28 224.153 619.226 211.402 588.982 224.654C563.217 235.949 543.338 259.346 524.814 280.319C491.731 317.754 461.312 358.56 428.524 395.382C404.735 422.115 384.704 450.397 377.451 487.263C371.804 516.023 373.344 545.842 370.188 574.932C367.872 596.258 363.788 621.613 346.782 635.948C332.878 647.698 313.13 648.586 297.632 657.831C270.184 674.181 260.332 687.149 226.484 671.494C188.759 654.062 156.582 623.97 126 595.734C83.9142 556.711 43.9427 515.28 6.26996 471.631" stroke="url(#paint37_linear_477_3170)" stroke-width="1.5" stroke-miterlimit="10"/>
<path d="M1044.2 385.829C995.696 342.735 932.456 287.605 865.284 289.051C828.52 289.848 803.41 289.438 768.797 274.364C737.123 260.565 706.541 244.044 674.375 231.258C647.954 220.749 619.239 208.965 591.224 219.337C566.769 228.446 547.709 247.995 530.223 267.157C497.358 303.204 467.529 343.065 435.352 378.872C411.99 404.866 390.648 429.493 380.304 464.572C371.566 494.379 371.719 525.018 368.388 555.714C366.204 576.094 362.927 600.334 347.417 614.862C333.754 627.671 312.783 628.194 297.175 638.248C270.317 655.543 261.318 673.054 226.683 656.67C186.762 637.781 151.527 602.019 119.306 572.018C80.2813 535.72 43.3532 497.26 7.987 457.114" stroke="url(#paint38_linear_477_3170)" stroke-width="1.5" stroke-miterlimit="10"/>
<path d="M1044.58 373.738C996.821 331.759 931.277 279.237 866.005 281.23C830.956 282.368 804.906 281.753 771.834 267.988C739.067 254.325 707.502 237.645 674.102 225.611C646.938 215.831 615.799 205.117 587.619 215.99C563.274 225.395 543.428 244.989 525.974 264.288C497.172 296.167 470.588 330.882 442.233 362.386C418.98 388.209 395.377 411.196 383.068 445.501C372.702 474.364 370.933 504.57 367.482 534.867C365.188 555.088 362.501 579.601 347.428 594.391C333.852 607.7 312.357 607.962 296.76 618.71C269.454 637.508 261.077 658.674 224.957 639.341C185.779 618.369 150.271 583.016 117.624 552.901C79.746 517.948 43.943 480.853 9.33044 442.461" stroke="url(#paint39_linear_477_3170)" stroke-width="1.5" stroke-miterlimit="10"/>
<path d="M1044.46 361.077C996.523 320.521 930.946 270.14 866.691 272.895C830.647 274.432 803.746 272.964 769.832 259.073C737.797 245.957 706.756 230.177 673.826 219.542C647.776 211.128 616.058 202.054 589.135 210.343C530.439 228.4 487.634 302.782 448.937 345.9C425.825 371.654 400.114 393.924 386.057 427.33C374.633 454.462 371.378 483.29 367.708 512.346C365.13 532.681 362.859 557.888 348.048 573.282C334.352 587.502 312.31 587.343 296.462 598.911C266.688 620.634 260.419 642.848 221.099 618.346C142.098 569.228 73.6486 495.905 10.2996 427.318" stroke="url(#paint40_linear_477_3170)" stroke-width="1.5" stroke-miterlimit="10"/>
<path d="M1043.45 347.391C994.219 308.68 931.602 260.565 867.368 264.128C833.051 266.041 805.603 264.652 773.077 251.946C739.884 238.989 707.773 222.89 673.52 213.007C647.624 205.549 615.01 198.342 588.524 205.276C532.165 220.077 491.643 288.596 455.272 329.482C432.696 354.849 405.86 376.163 390.121 407.815C377.113 434.002 372.143 462.466 367.916 491.248C364.902 511.743 363.624 537.577 348.485 553.118C334.549 567.441 312.18 566.781 296.223 578.838C285.661 586.808 278.671 599.765 267.825 607.063C251.354 618.13 233.584 606.96 218.751 597.488C141.345 548.029 74.1517 478.793 10.6498 411.902" stroke="url(#paint41_linear_477_3170)" stroke-width="1.5" stroke-miterlimit="10"/>
<path d="M1041.79 332.579C991.545 295.826 931.942 250.602 868.069 255.02C832.025 257.525 803.333 254.906 769.223 241.676C737.395 229.334 706.3 214.533 673.227 206.062C647.265 199.413 614.247 193.993 587.739 199.8C533.783 211.629 495.042 274.455 461.041 313.166C439.098 338.124 411.825 358.64 394.655 388.311C380.238 413.2 373.554 440.799 368.322 469.047C364.554 489.461 362.861 516.24 348.454 532.271C334.933 547.289 312.04 546.082 296.028 558.321C285.422 566.462 278.344 580.102 267.084 587.07C249.837 597.761 230.56 585.237 215.542 575.627C140.287 527.489 71.8485 461.771 10.7605 395.735" stroke="url(#paint42_linear_477_3170)" stroke-width="1.5" stroke-miterlimit="10"/>
<path d="M1039.5 316.787C988.782 281.878 931.757 240.275 868.747 245.615C833.391 248.61 804.305 245.741 770.84 233.262C738.401 221.182 706.704 206.38 672.911 198.65C647.091 192.752 614.783 189.735 588.569 193.879C535.312 202.293 498.92 258.891 465.923 296.987C444.428 321.808 417.025 341.937 398.642 370.049C383.089 393.822 374.81 420.623 368.344 448.359C363.582 468.853 360.775 495.552 345.484 510.888C331.744 524.665 310.347 524.244 294.87 536.244C284.505 544.282 277.526 557.217 266.614 564.321C249.139 575.707 230.123 564.458 214.417 554.757C140.2 508.919 69.0747 445.148 11.2633 378.77" stroke="url(#paint43_linear_477_3170)" stroke-width="1.5" stroke-miterlimit="10"/>
<path d="M1036.85 300.209C985.656 267.112 931.678 229.755 869.575 236.006C834.11 239.581 804.434 236.291 770.794 223.949C738.409 212.073 706.604 197.762 672.767 190.873C645.461 185.295 611.198 184.133 583.608 188.596C533.912 196.646 500.851 244.773 469.963 280.956C448.915 305.618 422.068 325.36 402.703 351.889C387.172 373.168 377.375 397.317 369.751 422.684C363.569 443.304 359.582 469.491 344.193 485.374C330.256 499.754 308.324 499.412 292.662 511.982C282.078 520.475 274.902 534.104 263.499 541.311C244.932 553.084 224.54 540.537 207.872 530.29C135.982 486.068 66.6151 426.59 11.9821 360.986" stroke="url(#paint44_linear_477_3170)" stroke-width="1.5" stroke-miterlimit="10"/>
<path d="M1033.77 283.017C982.152 251.65 931.56 219.132 870.45 226.248C834.243 230.461 803.126 226.1 768.786 213.724C737.112 202.282 705.874 188.778 672.67 182.778C644.917 177.757 612.38 179.055 584.353 182.197C534.93 187.742 503.234 228.491 472.728 265.312C453.33 288.698 429.235 306.858 409.696 330.017C391.892 351.114 379.747 375.377 369.971 401.37C362.752 420.589 357.116 443.861 342.229 458.469C327.342 473.077 305.355 472.621 289.376 486.148C278.574 495.256 271.507 509.909 259.722 517.606C242.094 529.117 222.674 518.46 206.433 508.976C134.106 466.781 66.1255 408.703 12.9124 342.689" stroke="url(#paint45_linear_477_3170)" stroke-width="1.5" stroke-miterlimit="10"/>
<path d="M1030.42 265.369C1007.39 252.23 983.92 239.661 959.902 228.605C928.304 214.043 905.225 211.834 871.432 216.423C799.072 226.26 742.102 185.351 672.647 174.148C644.402 169.594 613.591 173.499 585.149 175.571C535.999 179.146 504.805 212.221 474.354 249.327C438.846 292.592 396.806 323.333 371.881 375.855C363.024 394.482 355.738 416.923 340.207 430.939C324.304 445.307 301.979 444.693 285.596 459.209C274.39 469.138 267.607 484.52 255.472 493.184C237.352 506.118 216.469 494.14 199.616 484.303C128.469 442.768 65.7639 389.336 13.9379 323.834" stroke="url(#paint46_linear_477_3170)" stroke-width="1.5" stroke-miterlimit="10"/>
<path d="M1026.88 247.46C1003.83 235.118 980.317 223.186 956.256 213.166C925.673 200.414 904.506 201.781 872.537 206.608C800.1 217.561 742.311 175.32 672.834 165.267C642.809 160.929 611.998 167.203 581.896 168.956C535.455 171.677 504.566 197.932 475.175 233.068C440.224 274.853 399.101 308.213 370.998 356.739C360.557 374.762 350.88 395.78 333.011 407.166C316.136 417.925 296.967 417.413 281.611 431.929C270.568 442.324 264.518 458.207 252.863 467.726C234.558 482.686 214.33 472.28 196.068 461.964C124.691 421.728 66.5082 370.094 15.1409 304.843" stroke="url(#paint47_linear_477_3170)" stroke-width="1.5" stroke-miterlimit="10"/>
<path d="M1023.25 229.448C1000.31 217.971 976.852 206.813 952.834 197.944C923.038 186.945 903.585 191.363 873.801 196.805C802.719 209.921 742.57 165.108 673.137 155.942C642.162 151.855 611.776 160.246 580.833 161.715C535.801 163.855 505.208 182.539 475.281 216.548C442.023 254.314 404.079 288.63 374.447 330.666C362.115 348.165 350.483 368.352 331.763 379.271C313.457 389.951 293.677 388.823 277.665 404.786C266.164 416.263 260.659 433.945 248.404 444.385C230.557 459.585 211.356 449.85 193.028 440.15C121.4 402.258 67.2258 349.839 16.3391 285.693" stroke="url(#paint48_linear_477_3170)" stroke-width="1.5" stroke-miterlimit="10"/>
<path d="M1019.62 211.504C996.775 200.881 973.456 190.441 949.515 182.824C919.763 173.351 903.991 182.141 875.243 187.253C803.604 200.005 742.997 154.94 673.608 146.264C642.228 142.359 613.263 152.811 582.156 154.121C537.572 155.999 506.487 166.816 474.878 199.97C440.385 236.154 405.445 273.544 372.842 312.802C360.577 327.603 348.213 343.452 331.152 352.481C311.383 362.944 290.74 361.065 274.138 378.508C262.025 391.237 257.132 410.297 244.43 422.229C228.046 437.634 208.321 428.423 190.747 419.451C119.545 383.108 68.2757 329.447 17.4764 266.747" stroke="url(#paint49_linear_477_3170)" stroke-width="1.5" stroke-miterlimit="10"/>
<path d="M1016.11 193.811C993.487 184.019 970.168 173.897 946.325 167.909C918.32 160.872 902.854 171.711 876.903 177.871C805.821 194.767 744.362 143.714 674.296 135.904C641.398 132.203 611.558 145.08 579.075 146.264C537.21 147.801 505.503 153.984 474.222 183.427C439.151 216.388 408.525 255.031 375.146 291.01C361.526 305.686 346.847 320.612 328.497 328.696C307.745 337.804 287.878 335.129 271.33 353.619C259.218 367.145 254.947 386.478 242.933 399.822C226.549 418.039 205.655 407.883 186.803 398.683C117.229 364.526 68.3735 307.598 18.6008 248.188" stroke="url(#paint50_linear_477_3170)" stroke-width="1.5" stroke-miterlimit="10"/>
<path d="M1012.77 176.539C990.419 167.59 967.133 158.014 943.519 153.528C916.432 148.382 901.534 162.546 876.784 168.478C805.156 185.659 745.302 135.835 675.247 125.019C641.661 119.838 613.842 136.006 581.031 137.748C539.68 139.934 506.607 139.74 473.316 166.918C436.912 196.634 408.766 233.956 376.709 269.707C362.51 285.567 346.269 299.629 326.336 306.847C305.791 314.282 285.377 312.346 269.704 330.757C257.689 344.966 253.976 364.458 242.518 378.838C227.664 397.488 208.932 390.042 189.961 381.286C119.599 348.837 70.3184 287.81 19.3662 229.983" stroke="url(#paint51_linear_477_3170)" stroke-width="1.5" stroke-miterlimit="10"/>
<path d="M1009.72 159.87C987.601 151.707 964.566 143.122 941.236 139.866C915.47 136.279 899.983 153.278 876.696 159.699C806.04 179.18 745.346 128.526 676.503 114.817C660.807 111.686 644.468 110.502 628.74 114.282C611.1 118.518 596.836 127.455 578.366 129.004C539.046 132.317 506.279 127.387 472.486 150.545C452.225 164.436 431.539 181.287 414.697 200.471C399.831 217.436 387.533 236.677 372.548 253.505C360.009 267.589 345.876 279.601 328.356 286.216C306.708 294.38 285.432 290.395 268.95 310.365C256.564 325.383 253.867 346.605 241.71 361.418C227.293 378.986 209.042 371.335 191.249 363.172C121.347 331.064 72.197 268.022 20.0433 212.438" stroke="url(#paint52_linear_477_3170)" stroke-width="1.5" stroke-miterlimit="10"/>
<path d="M1007.05 143.953C985.296 136.575 962.152 128.309 939.204 126.761C915.547 125.167 898.224 145.251 877.024 151.547C806.794 172.394 746.798 121.387 678.054 104.866C641.038 95.9857 616.365 108.931 581.217 116.947C544.18 125.395 506.64 113.326 471.853 134.367C429.114 160.201 403.829 193.31 372.176 231.759C359.441 247.232 344.87 260.849 326.084 267.521C304.939 275.024 283.488 271.574 267.749 291.021C255.647 305.948 254.358 327.159 243.185 342.325C228.713 361.953 208.637 352.572 190.135 343.702C122.133 311.231 73.6385 248.063 20.4035 195.689" stroke="url(#paint53_linear_477_3170)" stroke-width="1.5" stroke-miterlimit="10"/>
<path d="M1004.85 128.981C984.464 122.639 961.549 114.271 940.087 114.829C916.845 115.444 898.583 137.088 877.721 143.931C808.048 166.759 747.397 114.749 679.821 95.5758C642.828 85.0783 615.14 95.7694 579.217 103.432C544.08 110.924 504.563 102.931 471.578 118.518C449.81 128.765 426.961 141.426 409.878 159.392C394.085 176.015 382.376 195.963 368.013 213.804C355.999 228.685 343.045 241.539 325.296 248.314C303.55 256.625 282.175 251.422 266.611 272.713C255.864 287.412 254.968 306.392 246.045 321.842C233.735 343.156 214.577 336.119 195.693 327.375C126.304 295.222 76.6406 230.188 20.1726 179.693" stroke="url(#paint54_linear_477_3170)" stroke-width="1.5" stroke-miterlimit="10"/>
<path d="M1003.21 115.114C984.87 109.865 962.796 101.929 943.508 103.5C919.38 105.47 900.212 128.993 878.739 136.769C809.448 161.817 748.207 108.237 681.833 86.4446C646.27 74.7744 618.396 82.3572 583.161 89.1544C547.183 96.0882 506.017 91.2379 471.842 102.954C423.085 119.656 397.275 150.284 366.693 191.431C355.127 207.018 342.249 222.002 324.271 229.527C303.115 238.374 279.763 233.148 264.963 254.576C242.311 287.378 256.127 335.493 201.516 311.048C130.314 279.169 76.533 212.46 17.6294 162.204" stroke="url(#paint55_linear_477_3170)" stroke-width="1.5" stroke-miterlimit="10"/>
<path d="M1004.23 102.259C987.054 97.2953 966.236 90.3273 948.181 92.6955C922.886 95.9973 902.559 121.239 880.038 129.995C810.518 157.001 749.713 101.701 683.994 77.8258C647.001 64.3908 619.346 70.5391 581.861 76.3685C545.697 81.9816 507.131 80.3648 472.802 87.7541C449.439 92.7752 423.652 102.043 404.494 119.361C388.166 134.162 376.577 153.21 363.765 171.119C352.308 187.128 339.736 203.159 321.616 211.208C300.93 220.385 277.152 214.715 263.499 236.849C242.627 270.709 259.829 318.438 203.809 293.048C131.624 260.326 73.7252 193.447 12.9102 143.134" stroke="url(#paint56_linear_477_3170)" stroke-width="1.5" stroke-miterlimit="10"/>
<path d="M1007.01 89.6213C990.091 84.7824 971.468 79.5564 953.851 82.3573C927.375 86.57 905.301 113.782 881.567 123.505C811.862 152.06 750.905 95.7581 686.343 69.3093C651.01 54.8269 623.071 57.9237 586.678 62.9675C549.444 68.0797 511.314 66.0758 474.648 72.5542C449.429 77.006 422.593 83.0518 401.874 100.21C385.829 113.508 374.677 131.258 362.674 148.257C349.567 166.873 336.373 185.568 315.064 194.471C295.174 202.76 274.018 196.418 262.266 219.235C253.888 235.482 258.17 255.305 250.797 271.495C241.033 292.945 217.615 280.285 202.084 272.918C129.364 238.477 68.92 173.226 6.40115 122.719" stroke="url(#paint57_linear_477_3170)" stroke-width="1.5" stroke-miterlimit="10"/>
<path d="M1011.27 77.1538C994.888 72.5996 977.074 68.6032 960.188 72.0986C932.009 77.9167 908.657 106.255 883.274 117.231C812.913 147.54 752.982 89.678 688.781 61.1912C652.454 45.0805 623.882 46.8908 585.828 50.5684C549.785 54.0524 512.857 51.707 477.48 56.6597C452.359 60.2006 424.747 64.3222 402.815 79.4309C384.171 92.2966 371.61 111.618 358.744 130.165C347.134 146.913 334.955 164.994 316.431 174.102C296.629 183.837 271.77 177.518 260.728 201.075C253.192 217.106 259.079 236.541 252.776 252.606C244.377 274.068 222.773 263.388 206.608 256.022C129.683 221.17 64.6846 153.699 -1.38401 101.394" stroke="url(#paint58_linear_477_3170)" stroke-width="1.5" stroke-miterlimit="10"/>
<path d="M1016.75 64.8915C1000.78 60.7358 983.387 57.7983 967.113 61.8857C937.088 69.4002 912.448 98.832 885.12 111.14C813.994 143.179 754.545 84.0307 691.36 53.0733C654.29 34.936 624.625 35.9949 585.13 38.3631C550.43 40.4922 515.162 37.7026 481.041 41.2436C455.297 43.9192 427.118 47.0844 403.679 60.5081C383.735 71.8937 370.41 90.9987 357.281 109.705C345.376 126.67 333.252 145.593 314.455 155.066C294.904 164.925 269.423 158.401 259.549 182.607C252.908 198.9 260.248 218.256 254.219 234.343C246.093 256.067 222.293 243.93 206.5 236.905C126.778 201.519 58.6889 132.807 -10.1212 79.465" stroke="url(#paint59_linear_477_3170)" stroke-width="1.5" stroke-miterlimit="10"/>
<path d="M1023.19 52.6749C966.246 39.5017 934.058 83.1883 887.049 105.049C814.962 138.522 756.659 78.3266 693.987 45.2172C657.398 25.8617 627.362 24.7231 587.626 26.078C553.462 27.2849 518.882 23.9034 485.187 26.2716C459.443 28.0819 431.559 30.4273 407.344 41.756C384.637 52.3901 369.968 71.7457 355.179 91.7502C342.597 108.76 330.976 126.556 311.763 135.938C292.551 145.319 267.135 138.215 258.845 163.548C253.482 179.898 261.204 198.912 255.569 214.692C246.995 238.602 216.139 222.127 200.586 214.829C120.482 177.256 51.3336 110.821 -19.0602 57.2745" stroke="url(#paint60_linear_477_3170)" stroke-width="1.5" stroke-miterlimit="10"/>
<path d="M1030.35 40.5947C973.065 29.0839 936.17 76.4594 889.007 98.946C815.992 133.752 758.913 72.6907 696.645 37.4637C660.602 17.072 630.238 13.5539 590.284 14.0093C556.753 14.4078 522.927 10.3545 489.8 11.6639C433.9 13.8613 392.876 24.9965 356.1 71.7571C342.994 88.4826 330.979 106.369 311.581 115.569C291.921 124.86 266.287 117.379 258.445 143.464C253.683 159.255 261.634 179.476 254.764 194.255C243.995 217.425 210.278 199.06 194.55 191.613C113.725 153.369 43.637 88.6419 -28.0019 35.1865" stroke="url(#paint61_linear_477_3170)" stroke-width="1.5" stroke-miterlimit="10"/>
<path d="M1037.93 28.5714C980.227 18.7798 938.209 69.6962 890.949 92.7634C817.027 128.833 761.225 67.0433 699.318 29.6416C663.843 8.21389 633.151 2.60079 593.012 1.96319C560.18 1.43945 527.184 -3.12619 494.712 -2.80739C440.668 -2.27227 396.969 5.16255 359.986 49.9421C345.689 67.2483 332.462 87.0023 311.458 96.0083C291.645 104.491 268.042 98.1602 258.693 122.89C253.079 137.771 259.84 160.838 249.409 173.704C234.118 192.547 196.316 171.335 181.145 163.878C102.844 125.406 34.1317 64.9028 -36.3713 13.4057" stroke="url(#paint62_linear_477_3170)" stroke-width="1.5" stroke-miterlimit="10"/>
<path d="M1045.71 16.5938C987.032 8.97679 940.372 64.0148 892.795 86.4103C861.907 100.95 830.997 104.138 798.635 87.6741C764.011 70.0605 734.663 42.7464 701.962 21.8083C643.113 -15.9464 567.312 -16.2538 499.78 -17.0849C445.748 -17.7225 400.748 -12.895 362.925 30.9054C348.212 47.9838 334.756 67.4532 313.567 76.2087C293.252 84.5885 270.391 78.4858 258.737 101.974C251.78 116.001 254.871 137.68 242.594 148.781C224.321 165.29 186.498 144.727 169.612 136.53C93.0908 99.4125 25.5913 41.847 -43.7212 -7.58935" stroke="url(#paint63_linear_477_3170)" stroke-width="1.5" stroke-miterlimit="10"/>
<path d="M1053.4 4.62773C993.414 -0.347783 943.532 56.3981 894.556 79.7727C863.625 94.574 833.173 98.7867 800.756 81.9815C766.045 63.9923 736.948 35.8242 704.64 13.9297C646.37 -25.4645 572.733 -28.4362 504.96 -31.2712C453.003 -33.4344 406.267 -31.3508 368.356 9.96752C353.491 26.1578 340.701 45.5248 320.44 55.0318C298.595 65.2788 273.9 57.6276 258.609 80.6721C249.871 93.7541 248.146 112.552 234.58 121.729C213.74 135.915 180.187 118.78 160.92 110.001C85.3167 75.5713 18.7785 19.8615 -49.551 -27.5026" stroke="url(#paint64_linear_477_3170)" stroke-width="1.5" stroke-miterlimit="10"/>
<path d="M1060.77 -7.38415C999.331 -9.66128 946.774 48.4053 896.127 72.8957C866.484 87.2644 836.819 93.0141 805.363 77.45C769.386 59.6315 739.83 29.1749 707.063 6.08494C649.438 -34.5389 577.941 -40.596 509.906 -45.4235C458.429 -49.0556 410.514 -49.2719 372.155 -8.7619C357.038 7.17795 344.205 26.4196 323.846 35.7558C301.051 46.2192 276.88 38.9096 257.886 58.8913C246.538 70.8121 240.585 87.5489 225.043 94.6308C201.145 105.515 169.613 91.0557 147.823 81.4121C75.736 49.5324 12.114 -2.08998 -53.4413 -45.9246" stroke="url(#paint65_linear_477_3170)" stroke-width="1.5" stroke-miterlimit="10"/>
<path d="M1067.56 -19.453C988.256 -18.7926 934.059 65.4609 857.855 79.4425C794.506 91.0672 739.556 16.6394 691.105 -14.9329C640.863 -47.712 572.839 -53.6439 514.613 -59.7352C463.857 -64.9954 414.707 -67.5003 375.988 -27.7645C360.697 -12.0296 347.852 7.08685 327.427 16.2978C303.781 26.9661 279.162 20.3625 256.99 36.7236C242.726 47.2325 232.524 61.7719 215.147 67.089C189.217 75.1158 159.072 63.2406 135.349 53.153C67.4235 24.2563 7.35128 -22.9143 -54.9055 -62.6273" stroke="url(#paint66_linear_477_3170)" stroke-width="1.5" stroke-miterlimit="10"/>
</g>
<defs>
<linearGradient id="paint0_linear_477_3170" x1="471.963" y1="1092.48" x2="471.963" y2="909.064" gradientUnits="userSpaceOnUse">
<stop stop-color="#7B5AFF"/>
<stop offset="1" stop-color="#9747FF"/>
</linearGradient>
<linearGradient id="paint1_linear_477_3170" x1="471.717" y1="1077.83" x2="471.717" y2="889.52" gradientUnits="userSpaceOnUse">
<stop stop-color="#7B5AFF"/>
<stop offset="1" stop-color="#9747FF"/>
</linearGradient>
<linearGradient id="paint2_linear_477_3170" x1="471.781" y1="1063.88" x2="471.781" y2="868.212" gradientUnits="userSpaceOnUse">
<stop stop-color="#7B5AFF"/>
<stop offset="1" stop-color="#9747FF"/>
</linearGradient>
<linearGradient id="paint3_linear_477_3170" x1="471.695" y1="1050.07" x2="471.695" y2="843.039" gradientUnits="userSpaceOnUse">
<stop stop-color="#7B5AFF"/>
<stop offset="1" stop-color="#9747FF"/>
</linearGradient>
<linearGradient id="paint4_linear_477_3170" x1="471.377" y1="1035.43" x2="471.377" y2="814.502" gradientUnits="userSpaceOnUse">
<stop stop-color="#7B5AFF"/>
<stop offset="1" stop-color="#9747FF"/>
</linearGradient>
<linearGradient id="paint5_linear_477_3170" x1="471.035" y1="1021.37" x2="471.035" y2="783.424" gradientUnits="userSpaceOnUse">
<stop stop-color="#7B5AFF"/>
<stop offset="1" stop-color="#9747FF"/>
</linearGradient>
<linearGradient id="paint6_linear_477_3170" x1="470.528" y1="1007.11" x2="470.528" y2="749.914" gradientUnits="userSpaceOnUse">
<stop stop-color="#7B5AFF"/>
<stop offset="1" stop-color="#9747FF"/>
</linearGradient>
<linearGradient id="paint7_linear_477_3170" x1="469.92" y1="992.892" x2="469.92" y2="716.399" gradientUnits="userSpaceOnUse">
<stop stop-color="#7B5AFF"/>
<stop offset="1" stop-color="#9747FF"/>
</linearGradient>
<linearGradient id="paint8_linear_477_3170" x1="469.353" y1="978.334" x2="469.353" y2="684.241" gradientUnits="userSpaceOnUse">
<stop stop-color="#7B5AFF"/>
<stop offset="1" stop-color="#9747FF"/>
</linearGradient>
<linearGradient id="paint9_linear_477_3170" x1="468.844" y1="965.568" x2="468.844" y2="652.639" gradientUnits="userSpaceOnUse">
<stop stop-color="#7B5AFF"/>
<stop offset="1" stop-color="#9747FF"/>
</linearGradient>
<linearGradient id="paint10_linear_477_3170" x1="468.495" y1="950.86" x2="468.495" y2="623.681" gradientUnits="userSpaceOnUse">
<stop stop-color="#7B5AFF"/>
<stop offset="1" stop-color="#9747FF"/>
</linearGradient>
<linearGradient id="paint11_linear_477_3170" x1="469.68" y1="937.446" x2="469.68" y2="598.3" gradientUnits="userSpaceOnUse">
<stop stop-color="#7B5AFF"/>
<stop offset="1" stop-color="#9747FF"/>
</linearGradient>
<linearGradient id="paint12_linear_477_3170" x1="472.179" y1="925.526" x2="472.179" y2="577.35" gradientUnits="userSpaceOnUse">
<stop stop-color="#7B5AFF"/>
<stop offset="1" stop-color="#9747FF"/>
</linearGradient>
<linearGradient id="paint13_linear_477_3170" x1="475.702" y1="913.645" x2="475.702" y2="555.077" gradientUnits="userSpaceOnUse">
<stop stop-color="#7B5AFF"/>
<stop offset="1" stop-color="#9747FF"/>
</linearGradient>
<linearGradient id="paint14_linear_477_3170" x1="479.927" y1="901.781" x2="479.927" y2="530.665" gradientUnits="userSpaceOnUse">
<stop stop-color="#7B5AFF"/>
<stop offset="1" stop-color="#9747FF"/>
</linearGradient>
<linearGradient id="paint15_linear_477_3170" x1="484.649" y1="889.726" x2="484.649" y2="504.898" gradientUnits="userSpaceOnUse">
<stop stop-color="#7B5AFF"/>
<stop offset="1" stop-color="#9747FF"/>
</linearGradient>
<linearGradient id="paint16_linear_477_3170" x1="489.655" y1="877.923" x2="489.655" y2="478.345" gradientUnits="userSpaceOnUse">
<stop stop-color="#7B5AFF"/>
<stop offset="1" stop-color="#9747FF"/>
</linearGradient>
<linearGradient id="paint17_linear_477_3170" x1="494.429" y1="867.144" x2="494.429" y2="451.161" gradientUnits="userSpaceOnUse">
<stop stop-color="#7B5AFF"/>
<stop offset="1" stop-color="#9747FF"/>
</linearGradient>
<linearGradient id="paint18_linear_477_3170" x1="498.508" y1="857.831" x2="498.508" y2="423.957" gradientUnits="userSpaceOnUse">
<stop stop-color="#7B5AFF"/>
<stop offset="1" stop-color="#9747FF"/>
</linearGradient>
<linearGradient id="paint19_linear_477_3170" x1="501.572" y1="849.76" x2="501.572" y2="397.355" gradientUnits="userSpaceOnUse">
<stop stop-color="#7B5AFF"/>
<stop offset="1" stop-color="#9747FF"/>
</linearGradient>
<linearGradient id="paint20_linear_477_3170" x1="503.368" y1="842.957" x2="503.368" y2="371.332" gradientUnits="userSpaceOnUse">
<stop stop-color="#7B5AFF"/>
<stop stop-color="#7B5AFF"/>
<stop offset="1" stop-color="#9747FF"/>
</linearGradient>
<linearGradient id="paint21_linear_477_3170" x1="504.804" y1="837.715" x2="504.804" y2="347.526" gradientUnits="userSpaceOnUse">
<stop stop-color="#7B5AFF"/>
<stop offset="1" stop-color="#9747FF"/>
</linearGradient>
<linearGradient id="paint22_linear_477_3170" x1="505.968" y1="833.66" x2="505.968" y2="328.073" gradientUnits="userSpaceOnUse">
<stop stop-color="#7B5AFF"/>
<stop offset="1" stop-color="#9747FF"/>
</linearGradient>
<linearGradient id="paint23_linear_477_3170" x1="506.881" y1="830.128" x2="506.881" y2="314.028" gradientUnits="userSpaceOnUse">
<stop stop-color="#7B5AFF"/>
<stop offset="1" stop-color="#9747FF"/>
</linearGradient>
<linearGradient id="paint24_linear_477_3170" x1="507.572" y1="826.28" x2="507.572" y2="301.834" gradientUnits="userSpaceOnUse">
<stop stop-color="#7B5AFF"/>
<stop offset="1" stop-color="#9747FF"/>
</linearGradient>
<linearGradient id="paint25_linear_477_3170" x1="508.044" y1="821.566" x2="508.044" y2="290.785" gradientUnits="userSpaceOnUse">
<stop stop-color="#7B5AFF"/>
<stop offset="1" stop-color="#9747FF"/>
</linearGradient>
<linearGradient id="paint26_linear_477_3170" x1="508.114" y1="815.987" x2="508.114" y2="280.728" gradientUnits="userSpaceOnUse">
<stop stop-color="#7B5AFF"/>
<stop offset="1" stop-color="#9747FF"/>
</linearGradient>
<linearGradient id="paint27_linear_477_3170" x1="508.164" y1="808.851" x2="508.164" y2="271.825" gradientUnits="userSpaceOnUse">
<stop stop-color="#7B5AFF"/>
<stop offset="1" stop-color="#9747FF"/>
</linearGradient>
<linearGradient id="paint28_linear_477_3170" x1="508.624" y1="800.379" x2="508.624" y2="263.7" gradientUnits="userSpaceOnUse">
<stop stop-color="#7B5AFF"/>
<stop offset="1" stop-color="#9747FF"/>
</linearGradient>
<linearGradient id="paint29_linear_477_3170" x1="509.496" y1="790.758" x2="509.496" y2="256.252" gradientUnits="userSpaceOnUse">
<stop stop-color="#7B5AFF"/>
<stop offset="1" stop-color="#9747FF"/>
</linearGradient>
<linearGradient id="paint30_linear_477_3170" x1="510.878" y1="779.802" x2="510.878" y2="249.197" gradientUnits="userSpaceOnUse">
<stop stop-color="#7B5AFF"/>
<stop offset="1" stop-color="#9747FF"/>
</linearGradient>
<linearGradient id="paint31_linear_477_3170" x1="512.806" y1="767.957" x2="512.806" y2="242.357" gradientUnits="userSpaceOnUse">
<stop stop-color="#7B5AFF"/>
<stop offset="1" stop-color="#9747FF"/>
</linearGradient>
<linearGradient id="paint32_linear_477_3170" x1="515.149" y1="755.306" x2="515.149" y2="236.094" gradientUnits="userSpaceOnUse">
<stop stop-color="#7B5AFF"/>
<stop offset="1" stop-color="#9747FF"/>
</linearGradient>
<linearGradient id="paint33_linear_477_3170" x1="517.742" y1="742.634" x2="517.742" y2="231.361" gradientUnits="userSpaceOnUse">
<stop stop-color="#7B5AFF"/>
<stop offset="1" stop-color="#9747FF"/>
</linearGradient>
<linearGradient id="paint34_linear_477_3170" x1="519.639" y1="724.917" x2="519.639" y2="228.213" gradientUnits="userSpaceOnUse">
<stop stop-color="#7B5AFF"/>
<stop offset="1" stop-color="#9747FF"/>
</linearGradient>
<linearGradient id="paint35_linear_477_3170" x1="521.516" y1="708.572" x2="521.516" y2="224.911" gradientUnits="userSpaceOnUse">
<stop stop-color="#7B5AFF"/>
<stop offset="1" stop-color="#9747FF"/>
</linearGradient>
<linearGradient id="paint36_linear_477_3170" x1="523.238" y1="693.496" x2="523.238" y2="222.363" gradientUnits="userSpaceOnUse">
<stop stop-color="#7B5AFF"/>
<stop offset="1" stop-color="#9747FF"/>
</linearGradient>
<linearGradient id="paint37_linear_477_3170" x1="524.831" y1="678.557" x2="524.831" y2="219.035" gradientUnits="userSpaceOnUse">
<stop stop-color="#7B5AFF"/>
<stop offset="1" stop-color="#9747FF"/>
</linearGradient>
<linearGradient id="paint38_linear_477_3170" x1="526.094" y1="663.209" x2="526.094" y2="215.319" gradientUnits="userSpaceOnUse">
<stop stop-color="#7B5AFF"/>
<stop offset="1" stop-color="#9747FF"/>
</linearGradient>
<linearGradient id="paint39_linear_477_3170" x1="526.957" y1="646.996" x2="526.957" y2="211.424" gradientUnits="userSpaceOnUse">
<stop stop-color="#7B5AFF"/>
<stop offset="1" stop-color="#9747FF"/>
</linearGradient>
<linearGradient id="paint40_linear_477_3170" x1="527.38" y1="629.071" x2="527.38" y2="207.068" gradientUnits="userSpaceOnUse">
<stop stop-color="#7B5AFF"/>
<stop offset="1" stop-color="#9747FF"/>
</linearGradient>
<linearGradient id="paint41_linear_477_3170" x1="527.048" y1="611.666" x2="527.048" y2="202.472" gradientUnits="userSpaceOnUse">
<stop stop-color="#7B5AFF"/>
<stop offset="1" stop-color="#9747FF"/>
</linearGradient>
<linearGradient id="paint42_linear_477_3170" x1="526.274" y1="591.167" x2="526.274" y2="197.335" gradientUnits="userSpaceOnUse">
<stop stop-color="#7B5AFF"/>
<stop offset="1" stop-color="#9747FF"/>
</linearGradient>
<linearGradient id="paint43_linear_477_3170" x1="525.384" y1="569.11" x2="525.384" y2="191.96" gradientUnits="userSpaceOnUse">
<stop stop-color="#7B5AFF"/>
<stop offset="1" stop-color="#9747FF"/>
</linearGradient>
<linearGradient id="paint44_linear_477_3170" x1="524.415" y1="546.067" x2="524.415" y2="185.86" gradientUnits="userSpaceOnUse">
<stop stop-color="#7B5AFF"/>
<stop offset="1" stop-color="#9747FF"/>
</linearGradient>
<linearGradient id="paint45_linear_477_3170" x1="523.341" y1="522.615" x2="523.341" y2="179.421" gradientUnits="userSpaceOnUse">
<stop stop-color="#7B5AFF"/>
<stop offset="1" stop-color="#9747FF"/>
</linearGradient>
<linearGradient id="paint46_linear_477_3170" x1="522.177" y1="498.837" x2="522.177" y2="172.032" gradientUnits="userSpaceOnUse">
<stop stop-color="#7B5AFF"/>
<stop offset="1" stop-color="#9747FF"/>
</linearGradient>
<linearGradient id="paint47_linear_477_3170" x1="521.01" y1="475.208" x2="521.01" y2="163.767" gradientUnits="userSpaceOnUse">
<stop stop-color="#7B5AFF"/>
<stop offset="1" stop-color="#9747FF"/>
</linearGradient>
<linearGradient id="paint48_linear_477_3170" x1="519.794" y1="452.282" x2="519.794" y2="154.831" gradientUnits="userSpaceOnUse">
<stop stop-color="#7B5AFF"/>
<stop offset="1" stop-color="#9747FF"/>
</linearGradient>
<linearGradient id="paint49_linear_477_3170" x1="518.55" y1="430.495" x2="518.55" y2="145.396" gradientUnits="userSpaceOnUse">
<stop stop-color="#7B5AFF"/>
<stop offset="1" stop-color="#9747FF"/>
</linearGradient>
<linearGradient id="paint50_linear_477_3170" x1="517.354" y1="409.942" x2="517.354" y2="135.238" gradientUnits="userSpaceOnUse">
<stop stop-color="#7B5AFF"/>
<stop offset="1" stop-color="#9747FF"/>
</linearGradient>
<linearGradient id="paint51_linear_477_3170" x1="516.066" y1="390.422" x2="516.066" y2="124" gradientUnits="userSpaceOnUse">
<stop stop-color="#7B5AFF"/>
<stop offset="1" stop-color="#9747FF"/>
</linearGradient>
<linearGradient id="paint52_linear_477_3170" x1="514.881" y1="372.067" x2="514.881" y2="111.919" gradientUnits="userSpaceOnUse">
<stop stop-color="#7B5AFF"/>
<stop offset="1" stop-color="#9747FF"/>
</linearGradient>
<linearGradient id="paint53_linear_477_3170" x1="513.728" y1="353.902" x2="513.728" y2="101.874" gradientUnits="userSpaceOnUse">
<stop stop-color="#7B5AFF"/>
<stop offset="1" stop-color="#9747FF"/>
</linearGradient>
<linearGradient id="paint54_linear_477_3170" x1="512.509" y1="335.887" x2="512.509" y2="91.195" gradientUnits="userSpaceOnUse">
<stop stop-color="#7B5AFF"/>
<stop offset="1" stop-color="#9747FF"/>
</linearGradient>
<linearGradient id="paint55_linear_477_3170" x1="510.419" y1="317.727" x2="510.419" y2="80.3811" gradientUnits="userSpaceOnUse">
<stop stop-color="#7B5AFF"/>
<stop offset="1" stop-color="#9747FF"/>
</linearGradient>
<linearGradient id="paint56_linear_477_3170" x1="508.572" y1="300.206" x2="508.572" y2="69.77" gradientUnits="userSpaceOnUse">
<stop stop-color="#7B5AFF"/>
<stop offset="1" stop-color="#9747FF"/>
</linearGradient>
<linearGradient id="paint57_linear_477_3170" x1="506.705" y1="283.393" x2="506.705" y2="58.7643" gradientUnits="userSpaceOnUse">
<stop stop-color="#7B5AFF"/>
<stop offset="1" stop-color="#9747FF"/>
</linearGradient>
<linearGradient id="paint58_linear_477_3170" x1="504.944" y1="265.288" x2="504.944" y2="48.0654" gradientUnits="userSpaceOnUse">
<stop stop-color="#7B5AFF"/>
<stop offset="1" stop-color="#9747FF"/>
</linearGradient>
<linearGradient id="paint59_linear_477_3170" x1="503.317" y1="246.685" x2="503.317" y2="37.0681" gradientUnits="userSpaceOnUse">
<stop stop-color="#7B5AFF"/>
<stop offset="1" stop-color="#9747FF"/>
</linearGradient>
<linearGradient id="paint60_linear_477_3170" x1="502.067" y1="227.179" x2="502.067" y2="25.4073" gradientUnits="userSpaceOnUse">
<stop stop-color="#7B5AFF"/>
<stop offset="1" stop-color="#9747FF"/>
</linearGradient>
<linearGradient id="paint61_linear_477_3170" x1="501.175" y1="205.577" x2="501.175" y2="11.4024" gradientUnits="userSpaceOnUse">
<stop stop-color="#7B5AFF"/>
<stop offset="1" stop-color="#9747FF"/>
</linearGradient>
<linearGradient id="paint62_linear_477_3170" x1="500.779" y1="181.304" x2="500.779" y2="-2.82332" gradientUnits="userSpaceOnUse">
<stop stop-color="#7B5AFF"/>
<stop offset="1" stop-color="#9747FF"/>
</linearGradient>
<linearGradient id="paint63_linear_477_3170" x1="500.993" y1="155.019" x2="500.993" y2="-17.1354" gradientUnits="userSpaceOnUse">
<stop stop-color="#7B5AFF"/>
<stop offset="1" stop-color="#9747FF"/>
</linearGradient>
<linearGradient id="paint64_linear_477_3170" x1="501.924" y1="127.152" x2="501.924" y2="-31.8407" gradientUnits="userSpaceOnUse">
<stop stop-color="#7B5AFF"/>
<stop offset="1" stop-color="#9747FF"/>
</linearGradient>
<linearGradient id="paint65_linear_477_3170" x1="503.664" y1="98.5139" x2="503.664" y2="-46.9341" gradientUnits="userSpaceOnUse">
<stop stop-color="#7B5AFF"/>
<stop offset="1" stop-color="#9747FF"/>
</linearGradient>
<linearGradient id="paint66_linear_477_3170" x1="506.328" y1="80.6633" x2="506.328" y2="-62.6595" gradientUnits="userSpaceOnUse">
<stop stop-color="#7B5AFF"/>
<stop offset="1" stop-color="#9747FF"/>
</linearGradient>
</defs>
</svg>
