<svg width="65" height="64" viewBox="0 0 65 64" fill="none" xmlns="http://www.w3.org/2000/svg">
<path d="M5.5 8C5.5 6.61929 6.61929 5.5 8 5.5H20C21.3807 5.5 22.5 6.61929 22.5 8V8.5H5.5V8Z" stroke="white"/>
<path d="M41.5 8C41.5 6.61929 42.6193 5.5 44 5.5H56C57.3807 5.5 58.5 6.61929 58.5 8V8.5H41.5V8Z" stroke="white"/>
<path d="M23.5 37C23.5 35.6193 24.6193 34.5 26 34.5H38C39.3807 34.5 40.5 35.6193 40.5 37V37.5H23.5V37Z" stroke="white"/>
<path d="M5.5 11.5H22.5V25C22.5 26.3807 21.3807 27.5 20 27.5H8C6.61929 27.5 5.5 26.3807 5.5 25V11.5Z" stroke="white"/>
<path d="M41.5 11.5H58.5V25C58.5 26.3807 57.3807 27.5 56 27.5H44C42.6193 27.5 41.5 26.3807 41.5 25V11.5Z" stroke="white"/>
<path d="M23.5 40.5H40.5V54C40.5 55.3807 39.3807 56.5 38 56.5H26C24.6193 56.5 23.5 55.3807 23.5 54V40.5Z" stroke="white"/>
<path d="M28 17H36M36 17L34 15M36 17L34 19" stroke="white" stroke-linecap="round"/>
<path d="M51.0711 33.4142L45.4142 39.071M45.4142 39.071H48.2426M45.4142 39.071V36.2426" stroke="white" stroke-linecap="round"/>
<path d="M13.4142 33.4142L19.0711 39.071M19.0711 39.071H16.2426M19.0711 39.071V36.2426" stroke="white" stroke-linecap="round"/>
</svg>
