<svg width="65" height="64" viewBox="0 0 65 64" fill="none" xmlns="http://www.w3.org/2000/svg">
<path d="M38.932 46.9808L38.9401 47.4807L39.432 47.4728V46.9808V35.1362H52.1473L50.1396 38.7239L50.076 38.8376V38.968V48.8591C50.0531 48.8689 50.0288 48.8792 50.0034 48.8901C49.7619 48.9927 49.4071 49.1399 48.957 49.3169C48.0565 49.6709 46.7759 50.1433 45.2585 50.6158C42.2164 51.5629 38.2538 52.5 34.5042 52.5C25.9442 52.5 20.7153 49.2781 17.6152 45.4009C14.4969 41.5009 13.5 36.8957 13.5 34.118C13.5 31.3327 14.2372 28.9299 14.9783 27.2194C15.3484 26.3652 15.718 25.6871 15.9937 25.2245C16.1315 24.9933 16.2456 24.8163 16.3243 24.6984C16.3637 24.6395 16.3941 24.5953 16.4143 24.5666L16.4365 24.5352L16.4415 24.5283L16.4422 24.5274L16.4423 24.5272L16.4424 24.5271L16.4424 24.5271L16.5511 24.3789L16.5377 24.1952L15.6428 11.946L24.7542 17.6387L24.9822 17.7812L25.2268 17.6696C28.9865 15.9531 33.1386 15.7626 36.3773 16.0127C37.9924 16.1374 39.3697 16.3708 40.3419 16.5728C40.8278 16.6737 41.2119 16.7667 41.4732 16.834C41.6038 16.8676 41.7037 16.8949 41.7702 16.9135C41.8034 16.9228 41.8284 16.9299 41.8446 16.9346L41.8624 16.9398L41.8663 16.941L41.8669 16.9412L41.8671 16.9412L41.8671 16.9412L42.0816 17.0056L42.2725 16.8883L50.3474 11.9258L49.7501 22.8389L47.7961 24.748C47.7714 24.7107 47.7452 24.672 47.7176 24.6321C47.4281 24.2153 46.9733 23.6669 46.3029 23.121C44.9546 22.0231 42.7646 20.9599 39.3703 20.9599C35.9694 20.9599 32.8729 22.1697 30.626 24.4395C28.3774 26.7111 27.0135 30.0098 27.0135 34.1253C27.0135 37.4601 27.7442 39.9841 28.8669 41.889C29.9895 43.7939 31.4876 45.0521 32.9802 45.8802C34.4694 46.7065 35.9537 47.1054 37.0621 47.2984C37.6173 47.3951 38.0813 47.4407 38.4087 47.4622C38.5725 47.4729 38.7024 47.4776 38.7928 47.4795C38.838 47.4805 38.8733 47.4808 38.8981 47.4809L38.9273 47.4808L38.9357 47.4808L38.9384 47.4807L38.9394 47.4807C38.9398 47.4807 38.9401 47.4807 38.932 46.9808Z" stroke="white"/>
</svg>
