<svg width="16" height="16" viewBox="0 0 16 16" fill="none" xmlns="http://www.w3.org/2000/svg">
<path d="M14.6851 0.00439453L11.2412 2.08527C11.2412 2.08527 7.65462 1.02657 4.65721 2.3719L0.80299 0.00439453L1.17758 5.04501C1.17758 5.04501 0 6.62288 0 8.81124C0 10.9996 1.58781 16.0044 8.33251 16.0044C11.295 16.0044 14.5601 14.5516 14.5601 14.5516V10.6589L15.4993 9.00865H10.0482V13.7114C10.0482 13.7114 5.62373 13.7816 5.62373 8.81405C5.62373 5.76509 7.67558 3.98911 10.218 3.98911C12.7605 3.98911 13.4391 5.55012 13.4391 5.55012L14.4294 4.5989L14.6851 0.00439453Z" fill="#7B5AFF"/>
</svg>
