<svg xmlns="http://www.w3.org/2000/svg" viewBox="0 0 839.33 212.88"><defs><style>.cls-1{fill:#fff;}</style></defs><g id="Layer_2" data-name="Layer 2"><g id="Layer_1-2" data-name="Layer 1"><path class="cls-1" d="M28.39,4.42c1.15.64,1.87,1,2.56,1.44C41.06,12,51.19,18.07,61.27,24.25a4.42,4.42,0,0,0,4.18.43A95.72,95.72,0,0,1,123,23.07a4.61,4.61,0,0,0,4-.52Q144.49,12,162.12,1.62c.85-.5,1.72-1,2.85-1.62a16.32,16.32,0,0,1,.24,2c0,14.66,0,29.32,0,44a3.67,3.67,0,0,1-1.07,2.89c-6.57,6.5-13.1,13.06-19.64,19.59a5.28,5.28,0,0,1-.64.41C129,54.69,111.18,48,90.53,49.8A64.59,64.59,0,0,0,51.58,67.22a66.64,66.64,0,0,0,53.29,115.13c33.11-4.13,52.5-29.92,56.72-51.19h-2.93q-33.49,0-67,0a8,8,0,0,1-5.25-1.83,16.83,16.83,0,0,1,.1-26.47,8,8,0,0,1,5.26-1.81c17.5.07,35,0,52.48,0h48c.29,2.18.67,4.27.85,6.38a96.66,96.66,0,0,1-47.12,91.88A95.2,95.2,0,0,1,90.82,212.7c-42.61-2.47-80.21-33.53-88.77-77.31C-4.31,102.91,4.2,74.21,26.57,49.74a6.23,6.23,0,0,0,1.86-4.6c-.08-12.5,0-25,0-37.49Z"/><path class="cls-1" d="M323.3,117.19c-3.69,0-7.18,0-10.67,0a23.81,23.81,0,0,1-4.21-.39c-3.76-.72-6.2-3.07-6.74-6.78-.42-2.91-.08-5.93-.08-9h45.27c.13.76.3,1.48.35,2.2,1,16.23-4.22,29.48-18.42,38.36-7.44,4.65-15.73,6.17-24.4,5.77-16.18-.75-28.19-8.5-36-22.46S262.89,93.67,273,81.29c18.45-22.63,54-20.66,70.12,4.44.17.27.3.57.53,1a16.07,16.07,0,0,1-1.38,1c-2.87,1.53-5.73,3-8.62,4.53-4.73,2.4-9.28,2.3-13.56-1.07-.79-.62-1.59-1.22-2.42-1.78a19.76,19.76,0,0,0-16-2.87,15.5,15.5,0,0,0-9.12,6.15c-5.74,7.66-5.7,19.45,0,27.14,6.93,9.41,19.81,8.79,26.63,3.83A10.21,10.21,0,0,0,323.3,117.19Z"/><path class="cls-1" d="M435.71,146h-3.29c-5,0-10,0-15,0-5.66.06-9.75-2.32-12.12-7.54-.55-1.2-1.17-2.38-1.79-3.63H376.7l-2.1,4.24c-2.17,4.33-5.68,6.76-10.51,6.87-6.16.14-12.32,0-18.48,0a1.46,1.46,0,0,1-.44-.16,1,1,0,0,1-.16-.21.31.31,0,0,1,0-.23Q365.27,107,385.55,68.55c.3-.58.67-1.13,1-1.69h7.2C407.66,93.08,421.56,119.31,435.71,146Zm-39.23-28.22c-2.15-5.21-4.14-10-6.14-14.87l-.49,0-6.1,14.85Z"/><path class="cls-1" d="M569.68,146h-3.3c-5,0-10,0-15,0-5.66.06-9.75-2.32-12.12-7.54-.55-1.2-1.17-2.38-1.79-3.63H510.67c-.71,1.42-1.4,2.83-2.11,4.24-2.17,4.33-5.67,6.76-10.5,6.87-6.16.14-12.33,0-18.49,0a1.46,1.46,0,0,1-.44-.16,1,1,0,0,1-.16-.21.31.31,0,0,1,0-.23l40.56-76.84c.31-.58.68-1.13,1-1.69h7.2Zm-39.26-28.26-6.35-15.43-6.34,15.43Z"/><path class="cls-1" d="M779,67h2.52c10.33,0,20.65,0,31,0a36.46,36.46,0,0,1,10.58,1.49c6.68,2.07,10.93,6.46,12.44,13.33a24.23,24.23,0,0,1,.28,10.65c-1.4,6.14-4.58,10.62-11.71,12,1.12.41,1.75.69,2.41.86a17.16,17.16,0,0,1,12.76,15.51,30.15,30.15,0,0,1-.79,10.14c-1.76,6.28-5.9,10.27-11.86,12.55a28.78,28.78,0,0,1-10.2,2.07q-17.85.06-35.71,0a14.39,14.39,0,0,1-1.65-.17C778.48,143.56,778.39,69.86,779,67Zm14.51,65.72c.93.08,1.66.19,2.38.19,5.49,0,11,0,16.48,0a29.05,29.05,0,0,0,3.7-.4c6.09-.81,9.26-5,8.56-11.5a8.44,8.44,0,0,0-6.14-7.69,23.62,23.62,0,0,0-6.36-1c-5.41-.15-10.82-.08-16.22-.07-2.52,0-2.6.1-2.6,2.74q0,7.62,0,15.23C793.29,130.93,793.42,131.74,793.49,132.68Zm-.06-33.92a6.28,6.28,0,0,0,1.51.43c6.14-.07,12.3,0,18.43-.33,5-.31,8-3.87,8.12-9,.16-5.43-2.28-8.58-7.42-9.56a12.8,12.8,0,0,0-2.23-.15q-8.12,0-16.21,0c-.71,0-1.42.14-2.2.22Z"/><path class="cls-1" d="M675.46,145.58c-3.6,0-6.75.17-9.88-.05-2.43-.17-4.12-2.14-4.49-4.68a20.94,20.94,0,0,1-.11-2.75c0-7.08,0-14.15,0-21.23,0-2.62-.09-2.71-2.64-2.71H623.85c-.73,0-1.46.12-2.51.2-.15,5.26-.05,10.39-.07,15.52s0,10.29,0,15.72a60,60,0,0,1-10.15-.11,4.68,4.68,0,0,1-4-3.92,20.33,20.33,0,0,1-.42-4q0-33.86,0-67.71c0-.89.11-1.77.17-2.74a81.42,81.42,0,0,1,9.14.07c3.56.42,5.13,2.5,5.31,6.13,0,.66,0,1.33,0,2v25.7c1.1.1,2,.24,2.87.24q17,0,34,0h.75c1.84-.11,2-.26,2.1-2,0-.67,0-1.33,0-2V67c3.7,0,7.16-.5,10.58.46a5,5,0,0,1,3.67,4.31,21.27,21.27,0,0,1,.22,3.48q0,33.61,0,67.21Z"/><path class="cls-1" d="M445.07,145.82V86.26l-10.3-.06c-3.31,0-6.62,0-10.21,0,0-4.16-.6-8.14.38-12A9.89,9.89,0,0,1,434,66.81c.74,0,1.5,0,2.24,0h53.33a14.16,14.16,0,0,1,.26,1.74c0,2.33.06,4.67,0,7-.2,6.6-4.35,10.62-11,10.67-3.06,0-6.13,0-9.56,0v3.08q0,22.11,0,44.21A26.75,26.75,0,0,1,469,138a9.79,9.79,0,0,1-7.79,7.81,13.83,13.83,0,0,1-2.48.26c-3.91,0-7.83,0-11.74,0A17.36,17.36,0,0,1,445.07,145.82Z"/><path class="cls-1" d="M760.54,67c.06,1.14.14,2,.14,2.75q0,22.11,0,44.22a36.53,36.53,0,0,1-2.59,14.4c-4.41,10.33-12.4,16.28-23.32,18.21a40.26,40.26,0,0,1-20.93-1.35c-12.27-4.41-18.9-13.35-20.33-26.2a83.88,83.88,0,0,1-.38-9c0-13.24,0-26.48,0-39.71v-3.2c3.92-.13,7.56-.64,11.1.49,2.2.69,3.23,2.52,3.51,4.74a25,25,0,0,1,.08,3c0,12.74,0,25.48,0,38.21a33.11,33.11,0,0,0,.66,6.44c1.57,7.74,6.7,12,14.08,13.83,6.56,1.62,12.37-.32,17.5-4.37,3.13-2.47,4.62-6.06,5.36-9.9a32.84,32.84,0,0,0,.54-6c0-12.9.1-25.81,0-38.71,0-4.79,1.35-8,8-7.93C756.08,67,758.22,67,760.54,67Z"/></g></g></svg>