<svg width="8" height="8" viewBox="0 0 8 8" fill="none" xmlns="http://www.w3.org/2000/svg">
<g clip-path="url(#clip0_816_8650)">
<path d="M1.08239 0.168515C1.12624 0.192916 1.15369 0.206641 1.17999 0.223416C1.56544 0.457508 1.95166 0.68893 2.33596 0.924547C2.35908 0.94029 2.38575 0.950031 2.41357 0.952893C2.4414 0.955755 2.46949 0.951648 2.49533 0.940941C3.20308 0.695803 3.96911 0.674373 4.68946 0.879559C4.71472 0.888029 4.74158 0.890645 4.768 0.887211C4.79442 0.883776 4.81971 0.87438 4.84196 0.859733C5.28651 0.591583 5.73283 0.325593 6.18094 0.0617635C6.21334 0.0427007 6.24651 0.0236379 6.28959 0C6.29421 0.0252044 6.29727 0.05067 6.29874 0.0762513C6.29874 0.635173 6.29874 1.1941 6.29874 1.75378C6.30034 1.774 6.29752 1.79433 6.29047 1.81336C6.28343 1.83239 6.27233 1.84965 6.25795 1.86396C6.00746 2.11178 5.7585 2.36188 5.50916 2.61084C5.50141 2.61663 5.49326 2.62186 5.48476 2.62648C4.91821 2.08509 4.23882 1.83003 3.45152 1.89866C2.89558 1.94543 2.372 2.1796 1.96653 2.56281C1.57129 2.92735 1.30189 3.40789 1.19711 3.93527C1.09232 4.46265 1.15755 5.00967 1.38341 5.49762C1.60927 5.98557 1.98411 6.38929 2.45398 6.65068C2.92386 6.91206 3.46455 7.01764 3.99824 6.95221C5.26058 6.79475 5.99984 5.81149 6.16073 5.00056H6.04902C5.1978 5.00056 4.34633 5.00056 3.4946 5.00056C3.42169 5.00198 3.35068 4.97723 3.29444 4.93079C3.21824 4.87046 3.15673 4.79361 3.11457 4.70604C3.07241 4.61847 3.05069 4.52246 3.05106 4.42527C3.05143 4.32808 3.07387 4.23224 3.11669 4.14499C3.15951 4.05774 3.2216 3.98135 3.29826 3.9216C3.3547 3.87535 3.42585 3.85087 3.4988 3.8526C4.166 3.85527 4.83319 3.8526 5.49963 3.8526H7.32966C7.34072 3.93571 7.35521 4.01539 7.36207 4.09584C7.42443 4.78984 7.28875 5.4873 6.97078 6.10732C6.65281 6.72733 6.16557 7.2445 5.56559 7.59882C4.9328 7.97888 4.19918 8.15696 3.46258 8.10932C1.83804 8.01515 0.404519 6.83097 0.0781633 5.16183C-0.164316 3.92351 0.160133 2.8293 1.013 1.89637C1.03621 1.87355 1.05448 1.84621 1.06667 1.81604C1.07887 1.78588 1.08474 1.75352 1.08392 1.72099C1.08087 1.24442 1.08392 0.76785 1.08392 0.291661L1.08239 0.168515Z" fill="white"/>
</g>
<defs>
<clipPath id="clip0_816_8650">
<rect width="8" height="8" fill="white"/>
</clipPath>
</defs>
</svg>
