<svg width="417" height="120" viewBox="0 0 417 120" fill="none" xmlns="http://www.w3.org/2000/svg">
<path fill-rule="evenodd" clip-rule="evenodd" d="M274.088 7.04473C273.959 7.13387 273.819 7.28309 273.729 7.58147L258.538 58.0188C257.647 60.976 254.924 63 251.836 63H0V57H251.836C252.277 57 252.666 56.7108 252.793 56.2884L267.984 5.85111C269.985 -0.790559 279.389 -0.790519 281.389 5.85111L313.487 112.419C313.577 112.717 313.717 112.866 313.845 112.955C313.994 113.059 314.203 113.13 314.444 113.13C314.685 113.13 314.895 113.059 315.043 112.955C315.172 112.866 315.312 112.717 315.402 112.419L330.593 61.9812C331.484 59.024 334.207 57 337.296 57H417V63H337.296C336.854 63 336.465 63.2891 336.338 63.7116L321.147 114.149C319.146 120.791 309.742 120.791 307.742 114.149L275.644 7.58148C275.555 7.2831 275.414 7.13388 275.286 7.04473C275.137 6.9412 274.928 6.86987 274.687 6.86987C274.446 6.86987 274.237 6.9412 274.088 7.04473Z" fill="#7B5AFF"/>
</svg>
