<svg width="24" height="24" viewBox="0 0 24 24" fill="none" xmlns="http://www.w3.org/2000/svg">
<path fill-rule="evenodd" clip-rule="evenodd" d="M7 10C9.20914 10 11 8.20914 11 6C11 3.79086 9.20914 2 7 2C4.79086 2 3 3.79086 3 6C3 8.20914 4.79086 10 7 10ZM21 12C21 14.2091 19.2091 16 17 16C14.7909 16 13 14.2091 13 12C13 9.79086 14.7909 8 17 8C19.2091 8 21 9.79086 21 12ZM11 18C11 20.2091 9.20914 22 7 22C4.79086 22 3 20.2091 3 18C3 15.7909 4.79086 14 7 14C9.20914 14 11 15.7909 11 18Z" fill="black"/>
</svg>
