<svg width="222" height="32" viewBox="0 0 222 32" fill="none" xmlns="http://www.w3.org/2000/svg">
<g clip-path="url(#clip0_565_2503)">
<path d="M0.5 16.0007H74.5" stroke="white"/>
<path d="M147.5 16.0007H221.5" stroke="white"/>
<path d="M100.275 0.664541C100.448 0.760763 100.556 0.814877 100.66 0.879527C102.182 1.79965 103.705 2.71677 105.219 3.64592C105.31 3.70813 105.415 3.74651 105.525 3.75754C105.635 3.76857 105.745 3.75191 105.847 3.70907C108.636 2.74522 111.654 2.66123 114.492 3.4685C114.592 3.5019 114.698 3.51221 114.802 3.49867C114.906 3.48513 115.006 3.44807 115.094 3.39031C116.856 2.33688 118.62 1.28797 120.387 0.243561C120.515 0.166884 120.646 0.0932152 120.817 0C120.834 0.0995078 120.846 0.199896 120.852 0.300694C120.852 2.50578 120.852 4.71087 120.852 6.91596C120.858 6.99597 120.847 7.07646 120.82 7.15178C120.792 7.2271 120.748 7.29543 120.691 7.35197C119.703 8.32923 118.723 9.30648 117.738 10.2973C117.708 10.32 117.676 10.3401 117.642 10.3574C115.402 8.22399 112.724 7.21815 109.619 7.48878C107.424 7.67086 105.356 8.59451 103.756 10.1078C102.197 11.5462 101.135 13.4421 100.723 15.5225C100.31 17.6029 100.568 19.7606 101.46 21.6849C102.352 23.6093 103.831 25.2011 105.685 26.2312C107.539 27.2613 109.672 27.6766 111.777 27.4173C116.753 26.7948 119.669 22.9174 120.303 19.721H119.863C116.505 19.721 113.15 19.721 109.789 19.721C109.502 19.7266 109.222 19.629 109 19.4459C108.7 19.2079 108.457 18.9047 108.291 18.5593C108.125 18.2139 108.039 17.8353 108.041 17.452C108.043 17.0687 108.131 16.6908 108.3 16.3468C108.469 16.0028 108.714 15.7017 109.016 15.4662C109.239 15.2842 109.519 15.1876 109.806 15.1941C112.437 15.2046 115.068 15.1941 117.698 15.1941H124.914C124.958 15.5203 125.015 15.836 125.042 16.1533C125.288 18.89 124.753 21.6404 123.499 24.0855C122.245 26.5305 120.324 28.5699 117.958 29.9672C115.458 31.464 112.561 32.1621 109.654 31.9683C103.248 31.5969 97.5946 26.9271 96.3076 20.3434C95.3529 15.4617 96.6309 11.1467 99.9941 7.46624C100.086 7.37666 100.158 7.26911 100.206 7.15037C100.254 7.03162 100.277 6.90421 100.274 6.77613C100.262 4.89679 100.274 3.01746 100.274 1.13962L100.275 0.664541Z" fill="white"/>
</g>
<defs>
<clipPath id="clip0_565_2503">
<rect width="222" height="32" fill="white"/>
</clipPath>
</defs>
</svg>
