<svg width="65" height="64" viewBox="0 0 65 64" fill="none" xmlns="http://www.w3.org/2000/svg">
<g clip-path="url(#clip0_17_1649)">
<path d="M10.725 6.1314L17 2.57473L23.275 6.1314L29.4926 9.78736L29.55 17L29.4926 24.2126L23.275 27.8686L17 31.4253L10.725 27.8686L4.50735 24.2126L4.45002 17L4.50735 9.78737L10.725 6.1314Z" stroke="white"/>
<path d="M43.725 37.1314L50 33.5747L56.275 37.1314L62.4926 40.7874L62.55 48L62.4926 55.2126L56.275 58.8686L50 62.4253L43.725 58.8686L37.5074 55.2126L37.45 48L37.5074 40.7874L43.725 37.1314Z" stroke="white"/>
<mask id="path-3-inside-1_17_1649" fill="white">
<path fill-rule="evenodd" clip-rule="evenodd" d="M17 14C18.6569 14 20 12.6569 20 11C20 9.34315 18.6569 8 17 8C15.3431 8 14 9.34315 14 11C14 12.6569 15.3431 14 17 14ZM24 23C24 21.1435 23.2625 19.363 21.9497 18.0503C20.637 16.7375 18.8565 16 17 16C15.1435 16 13.363 16.7375 12.0503 18.0503C10.7375 19.363 10 21.1435 10 23C10 24.1046 13.134 25 17 25C20.866 25 24 24.1046 24 23Z"/>
</mask>
<path d="M21.9497 18.0503L21.2426 18.7574L21.2426 18.7574L21.9497 18.0503ZM12.0503 18.0503L12.7574 18.7574H12.7574L12.0503 18.0503ZM19 11C19 12.1046 18.1046 13 17 13V15C19.2091 15 21 13.2091 21 11H19ZM17 9C18.1046 9 19 9.89543 19 11H21C21 8.79086 19.2091 7 17 7V9ZM15 11C15 9.89543 15.8954 9 17 9V7C14.7909 7 13 8.79086 13 11H15ZM17 13C15.8954 13 15 12.1046 15 11H13C13 13.2091 14.7909 15 17 15V13ZM21.2426 18.7574C22.3679 19.8826 23 21.4087 23 23H25C25 20.8783 24.1571 18.8434 22.6569 17.3431L21.2426 18.7574ZM17 17C18.5913 17 20.1174 17.6321 21.2426 18.7574L22.6569 17.3431C21.1566 15.8429 19.1217 15 17 15V17ZM12.7574 18.7574C13.8826 17.6321 15.4087 17 17 17V15C14.8783 15 12.8434 15.8429 11.3431 17.3431L12.7574 18.7574ZM11 23C11 21.4087 11.6321 19.8826 12.7574 18.7574L11.3431 17.3431C9.84286 18.8434 9 20.8783 9 23H11ZM17 24C15.1328 24 13.4796 23.7826 12.325 23.4527C11.7409 23.2858 11.3409 23.1059 11.1099 22.9498C10.8439 22.7702 11 22.7686 11 23H9C9 23.7836 9.54781 24.3082 9.99033 24.6071C10.4678 24.9296 11.0929 25.1807 11.7755 25.3757C13.1544 25.7697 15.0012 26 17 26V24ZM23 23C23 22.7686 23.1561 22.7702 22.8901 22.9498C22.6591 23.1059 22.2591 23.2858 21.675 23.4527C20.5204 23.7826 18.8672 24 17 24V26C18.9988 26 20.8456 25.7697 22.2245 25.3757C22.9071 25.1807 23.5322 24.9297 24.0097 24.6071C24.4522 24.3082 25 23.7836 25 23H23Z" fill="white" mask="url(#path-3-inside-1_17_1649)"/>
<mask id="path-5-inside-2_17_1649" fill="white">
<path fill-rule="evenodd" clip-rule="evenodd" d="M50 45C51.6569 45 53 43.6569 53 42C53 40.3431 51.6569 39 50 39C48.3431 39 47 40.3431 47 42C47 43.6569 48.3431 45 50 45ZM57 54C57 52.1435 56.2625 50.363 54.9497 49.0503C53.637 47.7375 51.8565 47 50 47C48.1435 47 46.363 47.7375 45.0503 49.0503C43.7375 50.363 43 52.1435 43 54C43 55.1046 46.134 56 50 56C53.866 56 57 55.1046 57 54Z"/>
</mask>
<path d="M54.9497 49.0503L55.6569 48.3431L54.9497 49.0503ZM45.0503 49.0503L45.7574 49.7574L45.0503 49.0503ZM52 42C52 43.1046 51.1046 44 50 44V46C52.2091 46 54 44.2091 54 42H52ZM50 40C51.1046 40 52 40.8954 52 42H54C54 39.7909 52.2091 38 50 38V40ZM48 42C48 40.8954 48.8954 40 50 40V38C47.7909 38 46 39.7909 46 42H48ZM50 44C48.8954 44 48 43.1046 48 42H46C46 44.2091 47.7909 46 50 46V44ZM54.2426 49.7574C55.3679 50.8826 56 52.4087 56 54H58C58 51.8783 57.1571 49.8434 55.6569 48.3431L54.2426 49.7574ZM50 48C51.5913 48 53.1174 48.6321 54.2426 49.7574L55.6569 48.3431C54.1566 46.8429 52.1217 46 50 46V48ZM45.7574 49.7574C46.8826 48.6321 48.4087 48 50 48V46C47.8783 46 45.8434 46.8429 44.3431 48.3431L45.7574 49.7574ZM44 54C44 52.4087 44.6321 50.8826 45.7574 49.7574L44.3431 48.3431C42.8429 49.8434 42 51.8783 42 54H44ZM50 55C48.1328 55 46.4796 54.7826 45.325 54.4527C44.7409 54.2858 44.3409 54.1059 44.1099 53.9498C43.8439 53.7702 44 53.7686 44 54H42C42 54.7836 42.5478 55.3082 42.9903 55.6071C43.4678 55.9296 44.0929 56.1807 44.7755 56.3757C46.1544 56.7697 48.0012 57 50 57V55ZM56 54C56 53.7686 56.1561 53.7702 55.8901 53.9498C55.6591 54.1059 55.2591 54.2858 54.675 54.4527C53.5204 54.7826 51.8672 55 50 55V57C51.9988 57 53.8456 56.7697 55.2245 56.3757C55.9071 56.1807 56.5322 55.9296 57.0097 55.6071C57.4522 55.3082 58 54.7836 58 54H56Z" fill="white" mask="url(#path-5-inside-2_17_1649)"/>
<path d="M34 17H50V29" stroke="white" stroke-linecap="round" stroke-dasharray="3 3"/>
<path d="M33 48L17 48L17 36" stroke="white" stroke-linecap="round" stroke-dasharray="3 3"/>
</g>
<defs>
<clipPath id="clip0_17_1649">
<rect width="64" height="64" fill="white" transform="translate(0.799988)"/>
</clipPath>
</defs>
</svg>
